<svg width="286" height="280" viewBox="0 0 286 280" xmlns="http://www.w3.org/2000/svg" role="img" aria-label="Planet surface with the Big Dipper as research focus areas — linkedin">
  <style>
    .tw { animation: twinkle 3.2s ease-in-out infinite; }
    .tw2 { animation: twinkle 4.1s ease-in-out infinite; animation-delay: 1.3s; }
    .tw3 { animation: twinkle 2.6s ease-in-out infinite; animation-delay: 0.7s; }
    @keyframes twinkle { 0%, 100% { opacity: 1; } 50% { opacity: 0.15; } }
    .drift { animation: drift 23.1s linear infinite; }
    @keyframes drift { from { transform: translateY(0); } to { transform: translateY(280px); } }

    .sign { font: 600 13px ui-monospace, 'Cascadia Code', 'Fira Code', Consolas, monospace; }
    .focus { font: 500 10px ui-monospace, 'Cascadia Code', 'Fira Code', Consolas, monospace; fill: #7d8590; }
    .blink { animation: blink 2s step-end infinite; }
    @keyframes blink { 0%, 100% { opacity: 1; } 50% { opacity: 0.15; } }
  </style>

  <rect width="286" height="280" fill="#0d1117"/>
  <g class="drift">
    <g id="fstars287">
      <circle cx="60" cy="234" r="1.0" fill="#ffffff" opacity="0.53"/>
      <circle cx="7" cy="148" r="0.9" fill="#ffffff" opacity="0.47"/>
      <circle cx="126" cy="105" r="1.5" fill="#ffffff" opacity="0.84"/>
      <circle cx="200" cy="68" r="0.8" fill="#ffffff" opacity="0.41" class="tw3"/>
      <circle cx="255" cy="45" r="1.2" fill="#ffffff" opacity="0.66"/>
      <circle cx="211" cy="166" r="1.3" fill="#ffffff" opacity="0.72"/>
      <circle cx="174" cy="58" r="1.1" fill="#ffffff" opacity="0.59" class="tw2"/>
      <circle cx="134" cy="146" r="1.2" fill="#ffffff" opacity="0.66"/>
      <circle cx="253" cy="131" r="1.2" fill="#ffffff" opacity="0.66"/>
      <circle cx="86" cy="68" r="1.6" fill="#ffffff" opacity="0.9" class="tw"/>
      <circle cx="237" cy="167" r="1.0" fill="#ffffff" opacity="0.53"/>
      <circle cx="262" cy="56" r="1.5" fill="#ffffff" opacity="0.84"/>
      <circle cx="131" cy="83" r="0.8" fill="#ffffff" opacity="0.41"/>
      <circle cx="261" cy="249" r="1.2" fill="#ffffff" opacity="0.66"/>
      <circle cx="13" cy="95" r="0.9" fill="#ffffff" opacity="0.47"/>
      <circle cx="27" cy="58" r="1.4" fill="#ffffff" opacity="0.78" class="tw3"/>
    </g>
    <use href="#fstars287" y="-280"/>
  </g>
  <g transform="translate(-287,0)">
  <g shape-rendering="crispEdges"><rect x="0" y="246" width="4" height="34" fill="#0f3a22"/><rect x="0" y="246" width="4" height="4" fill="#1d6b3f"/><rect x="4" y="246" width="4" height="34" fill="#0f3a22"/><rect x="4" y="246" width="4" height="4" fill="#1d6b3f"/><rect x="8" y="246" width="4" height="34" fill="#0f3a22"/><rect x="8" y="246" width="4" height="4" fill="#1d6b3f"/><rect x="12" y="242" width="4" height="38" fill="#0f3a22"/><rect x="12" y="242" width="4" height="4" fill="#1d6b3f"/><rect x="16" y="242" width="4" height="38" fill="#0f3a22"/><rect x="16" y="242" width="4" height="4" fill="#1d6b3f"/><rect x="20" y="242" width="4" height="38" fill="#0f3a22"/><rect x="20" y="242" width="4" height="4" fill="#1d6b3f"/><rect x="24" y="242" width="4" height="38" fill="#0f3a22"/><rect x="24" y="242" width="4" height="4" fill="#1d6b3f"/><rect x="28" y="242" width="4" height="38" fill="#0f3a22"/><rect x="28" y="242" width="4" height="4" fill="#1d6b3f"/><rect x="32" y="246" width="4" height="34" fill="#0f3a22"/><rect x="32" y="246" width="4" height="4" fill="#1d6b3f"/><rect x="36" y="246" width="4" height="34" fill="#0f3a22"/><rect x="36" y="246" width="4" height="4" fill="#1d6b3f"/><rect x="40" y="246" width="4" height="34" fill="#0f3a22"/><rect x="40" y="246" width="4" height="4" fill="#1d6b3f"/><rect x="44" y="242" width="4" height="38" fill="#0f3a22"/><rect x="44" y="242" width="4" height="4" fill="#1d6b3f"/><rect x="48" y="238" width="4" height="42" fill="#0f3a22"/><rect x="48" y="238" width="4" height="4" fill="#1d6b3f"/><rect x="52" y="242" width="4" height="38" fill="#0f3a22"/><rect x="52" y="242" width="4" height="4" fill="#1d6b3f"/><rect x="56" y="238" width="4" height="42" fill="#0f3a22"/><rect x="56" y="238" width="4" height="4" fill="#1d6b3f"/><rect x="60" y="238" width="4" height="42" fill="#0f3a22"/><rect x="60" y="238" width="4" height="4" fill="#1d6b3f"/><rect x="64" y="238" width="4" height="42" fill="#0f3a22"/><rect x="64" y="238" width="4" height="4" fill="#1d6b3f"/><rect x="68" y="238" width="4" height="42" fill="#0f3a22"/><rect x="68" y="238" width="4" height="4" fill="#1d6b3f"/><rect x="72" y="234" width="4" height="46" fill="#0f3a22"/><rect x="72" y="234" width="4" height="4" fill="#1d6b3f"/><rect x="76" y="234" width="4" height="46" fill="#0f3a22"/><rect x="76" y="234" width="4" height="4" fill="#1d6b3f"/><rect x="80" y="234" width="4" height="46" fill="#0f3a22"/><rect x="80" y="234" width="4" height="4" fill="#1d6b3f"/><rect x="84" y="234" width="4" height="46" fill="#0f3a22"/><rect x="84" y="234" width="4" height="4" fill="#1d6b3f"/><rect x="88" y="234" width="4" height="46" fill="#0f3a22"/><rect x="88" y="234" width="4" height="4" fill="#1d6b3f"/><rect x="92" y="234" width="4" height="46" fill="#0f3a22"/><rect x="92" y="234" width="4" height="4" fill="#1d6b3f"/><rect x="96" y="234" width="4" height="46" fill="#0f3a22"/><rect x="96" y="234" width="4" height="4" fill="#1d6b3f"/><rect x="100" y="234" width="4" height="46" fill="#0f3a22"/><rect x="100" y="234" width="4" height="4" fill="#1d6b3f"/><rect x="104" y="234" width="4" height="46" fill="#0f3a22"/><rect x="104" y="234" width="4" height="4" fill="#1d6b3f"/><rect x="108" y="234" width="4" height="46" fill="#0f3a22"/><rect x="108" y="234" width="4" height="4" fill="#1d6b3f"/><rect x="112" y="234" width="4" height="46" fill="#0f3a22"/><rect x="112" y="234" width="4" height="4" fill="#1d6b3f"/><rect x="116" y="238" width="4" height="42" fill="#0f3a22"/><rect x="116" y="238" width="4" height="4" fill="#1d6b3f"/><rect x="120" y="234" width="4" height="46" fill="#0f3a22"/><rect x="120" y="234" width="4" height="4" fill="#1d6b3f"/><rect x="124" y="238" width="4" height="42" fill="#0f3a22"/><rect x="124" y="238" width="4" height="4" fill="#1d6b3f"/><rect x="128" y="238" width="4" height="42" fill="#0f3a22"/><rect x="128" y="238" width="4" height="4" fill="#1d6b3f"/><rect x="132" y="238" width="4" height="42" fill="#0f3a22"/><rect x="132" y="238" width="4" height="4" fill="#1d6b3f"/><rect x="136" y="238" width="4" height="42" fill="#0f3a22"/><rect x="136" y="238" width="4" height="4" fill="#1d6b3f"/><rect x="140" y="242" width="4" height="38" fill="#0f3a22"/><rect x="140" y="242" width="4" height="4" fill="#1d6b3f"/><rect x="144" y="242" width="4" height="38" fill="#0f3a22"/><rect x="144" y="242" width="4" height="4" fill="#1d6b3f"/><rect x="148" y="238" width="4" height="42" fill="#0f3a22"/><rect x="148" y="238" width="4" height="4" fill="#1d6b3f"/><rect x="152" y="242" width="4" height="38" fill="#0f3a22"/><rect x="152" y="242" width="4" height="4" fill="#1d6b3f"/><rect x="156" y="242" width="4" height="38" fill="#0f3a22"/><rect x="156" y="242" width="4" height="4" fill="#1d6b3f"/><rect x="160" y="242" width="4" height="38" fill="#0f3a22"/><rect x="160" y="242" width="4" height="4" fill="#1d6b3f"/><rect x="164" y="242" width="4" height="38" fill="#0f3a22"/><rect x="164" y="242" width="4" height="4" fill="#1d6b3f"/><rect x="168" y="238" width="4" height="42" fill="#0f3a22"/><rect x="168" y="238" width="4" height="4" fill="#1d6b3f"/><rect x="172" y="242" width="4" height="38" fill="#0f3a22"/><rect x="172" y="242" width="4" height="4" fill="#1d6b3f"/><rect x="176" y="242" width="4" height="38" fill="#0f3a22"/><rect x="176" y="242" width="4" height="4" fill="#1d6b3f"/><rect x="180" y="238" width="4" height="42" fill="#0f3a22"/><rect x="180" y="238" width="4" height="4" fill="#1d6b3f"/><rect x="184" y="238" width="4" height="42" fill="#0f3a22"/><rect x="184" y="238" width="4" height="4" fill="#1d6b3f"/><rect x="188" y="234" width="4" height="46" fill="#0f3a22"/><rect x="188" y="234" width="4" height="4" fill="#1d6b3f"/><rect x="192" y="234" width="4" height="46" fill="#0f3a22"/><rect x="192" y="234" width="4" height="4" fill="#1d6b3f"/><rect x="196" y="238" width="4" height="42" fill="#0f3a22"/><rect x="196" y="238" width="4" height="4" fill="#1d6b3f"/><rect x="200" y="238" width="4" height="42" fill="#0f3a22"/><rect x="200" y="238" width="4" height="4" fill="#1d6b3f"/><rect x="204" y="238" width="4" height="42" fill="#0f3a22"/><rect x="204" y="238" width="4" height="4" fill="#1d6b3f"/><rect x="208" y="238" width="4" height="42" fill="#0f3a22"/><rect x="208" y="238" width="4" height="4" fill="#1d6b3f"/><rect x="212" y="238" width="4" height="42" fill="#0f3a22"/><rect x="212" y="238" width="4" height="4" fill="#1d6b3f"/><rect x="216" y="238" width="4" height="42" fill="#0f3a22"/><rect x="216" y="238" width="4" height="4" fill="#1d6b3f"/><rect x="220" y="234" width="4" height="46" fill="#0f3a22"/><rect x="220" y="234" width="4" height="4" fill="#1d6b3f"/><rect x="224" y="234" width="4" height="46" fill="#0f3a22"/><rect x="224" y="234" width="4" height="4" fill="#1d6b3f"/><rect x="228" y="234" width="4" height="46" fill="#0f3a22"/><rect x="228" y="234" width="4" height="4" fill="#1d6b3f"/><rect x="232" y="234" width="4" height="46" fill="#0f3a22"/><rect x="232" y="234" width="4" height="4" fill="#1d6b3f"/><rect x="236" y="238" width="4" height="42" fill="#0f3a22"/><rect x="236" y="238" width="4" height="4" fill="#1d6b3f"/><rect x="240" y="242" width="4" height="38" fill="#0f3a22"/><rect x="240" y="242" width="4" height="4" fill="#1d6b3f"/><rect x="244" y="246" width="4" height="34" fill="#0f3a22"/><rect x="244" y="246" width="4" height="4" fill="#1d6b3f"/><rect x="248" y="246" width="4" height="34" fill="#0f3a22"/><rect x="248" y="246" width="4" height="4" fill="#1d6b3f"/><rect x="252" y="246" width="4" height="34" fill="#0f3a22"/><rect x="252" y="246" width="4" height="4" fill="#1d6b3f"/><rect x="256" y="246" width="4" height="34" fill="#0f3a22"/><rect x="256" y="246" width="4" height="4" fill="#1d6b3f"/><rect x="260" y="250" width="4" height="30" fill="#0f3a22"/><rect x="260" y="250" width="4" height="4" fill="#1d6b3f"/><rect x="264" y="250" width="4" height="30" fill="#0f3a22"/><rect x="264" y="250" width="4" height="4" fill="#1d6b3f"/><rect x="268" y="254" width="4" height="26" fill="#0f3a22"/><rect x="268" y="254" width="4" height="4" fill="#1d6b3f"/><rect x="272" y="254" width="4" height="26" fill="#0f3a22"/><rect x="272" y="254" width="4" height="4" fill="#1d6b3f"/><rect x="276" y="254" width="4" height="26" fill="#0f3a22"/><rect x="276" y="254" width="4" height="4" fill="#1d6b3f"/><rect x="280" y="250" width="4" height="30" fill="#0f3a22"/><rect x="280" y="250" width="4" height="4" fill="#1d6b3f"/><rect x="284" y="254" width="4" height="26" fill="#0f3a22"/><rect x="284" y="254" width="4" height="4" fill="#1d6b3f"/><rect x="288" y="254" width="4" height="26" fill="#0f3a22"/><rect x="288" y="254" width="4" height="4" fill="#1d6b3f"/><rect x="292" y="254" width="4" height="26" fill="#0f3a22"/><rect x="292" y="254" width="4" height="4" fill="#1d6b3f"/><rect x="296" y="254" width="4" height="26" fill="#0f3a22"/><rect x="296" y="254" width="4" height="4" fill="#1d6b3f"/><rect x="300" y="250" width="4" height="30" fill="#0f3a22"/><rect x="300" y="250" width="4" height="4" fill="#1d6b3f"/><rect x="304" y="250" width="4" height="30" fill="#0f3a22"/><rect x="304" y="250" width="4" height="4" fill="#1d6b3f"/><rect x="308" y="250" width="4" height="30" fill="#0f3a22"/><rect x="308" y="250" width="4" height="4" fill="#1d6b3f"/><rect x="312" y="254" width="4" height="26" fill="#0f3a22"/><rect x="312" y="254" width="4" height="4" fill="#1d6b3f"/><rect x="316" y="254" width="4" height="26" fill="#0f3a22"/><rect x="316" y="254" width="4" height="4" fill="#1d6b3f"/><rect x="320" y="254" width="4" height="26" fill="#0f3a22"/><rect x="320" y="254" width="4" height="4" fill="#1d6b3f"/><rect x="324" y="254" width="4" height="26" fill="#0f3a22"/><rect x="324" y="254" width="4" height="4" fill="#1d6b3f"/><rect x="328" y="250" width="4" height="30" fill="#0f3a22"/><rect x="328" y="250" width="4" height="4" fill="#1d6b3f"/><rect x="332" y="250" width="4" height="30" fill="#0f3a22"/><rect x="332" y="250" width="4" height="4" fill="#1d6b3f"/><rect x="336" y="250" width="4" height="30" fill="#0f3a22"/><rect x="336" y="250" width="4" height="4" fill="#1d6b3f"/><rect x="340" y="250" width="4" height="30" fill="#0f3a22"/><rect x="340" y="250" width="4" height="4" fill="#1d6b3f"/><rect x="344" y="250" width="4" height="30" fill="#0f3a22"/><rect x="344" y="250" width="4" height="4" fill="#1d6b3f"/><rect x="348" y="254" width="4" height="26" fill="#0f3a22"/><rect x="348" y="254" width="4" height="4" fill="#1d6b3f"/><rect x="352" y="254" width="4" height="26" fill="#0f3a22"/><rect x="352" y="254" width="4" height="4" fill="#1d6b3f"/><rect x="356" y="250" width="4" height="30" fill="#0f3a22"/><rect x="356" y="250" width="4" height="4" fill="#1d6b3f"/><rect x="360" y="250" width="4" height="30" fill="#0f3a22"/><rect x="360" y="250" width="4" height="4" fill="#1d6b3f"/><rect x="364" y="246" width="4" height="34" fill="#0f3a22"/><rect x="364" y="246" width="4" height="4" fill="#1d6b3f"/><rect x="368" y="246" width="4" height="34" fill="#0f3a22"/><rect x="368" y="246" width="4" height="4" fill="#1d6b3f"/><rect x="372" y="250" width="4" height="30" fill="#0f3a22"/><rect x="372" y="250" width="4" height="4" fill="#1d6b3f"/><rect x="376" y="254" width="4" height="26" fill="#0f3a22"/><rect x="376" y="254" width="4" height="4" fill="#1d6b3f"/><rect x="380" y="256" width="4" height="24" fill="#0f3a22"/><rect x="380" y="256" width="4" height="4" fill="#1d6b3f"/><rect x="384" y="256" width="4" height="24" fill="#0f3a22"/><rect x="384" y="256" width="4" height="4" fill="#1d6b3f"/><rect x="388" y="256" width="4" height="24" fill="#0f3a22"/><rect x="388" y="256" width="4" height="4" fill="#1d6b3f"/><rect x="392" y="256" width="4" height="24" fill="#0f3a22"/><rect x="392" y="256" width="4" height="4" fill="#1d6b3f"/><rect x="396" y="256" width="4" height="24" fill="#0f3a22"/><rect x="396" y="256" width="4" height="4" fill="#1d6b3f"/><rect x="400" y="256" width="4" height="24" fill="#0f3a22"/><rect x="400" y="256" width="4" height="4" fill="#1d6b3f"/><rect x="404" y="256" width="4" height="24" fill="#0f3a22"/><rect x="404" y="256" width="4" height="4" fill="#1d6b3f"/><rect x="408" y="256" width="4" height="24" fill="#0f3a22"/><rect x="408" y="256" width="4" height="4" fill="#1d6b3f"/><rect x="412" y="252" width="4" height="28" fill="#0f3a22"/><rect x="412" y="252" width="4" height="4" fill="#1d6b3f"/><rect x="416" y="252" width="4" height="28" fill="#0f3a22"/><rect x="416" y="252" width="4" height="4" fill="#1d6b3f"/><rect x="420" y="252" width="4" height="28" fill="#0f3a22"/><rect x="420" y="252" width="4" height="4" fill="#1d6b3f"/><rect x="424" y="252" width="4" height="28" fill="#0f3a22"/><rect x="424" y="252" width="4" height="4" fill="#1d6b3f"/><rect x="428" y="252" width="4" height="28" fill="#0f3a22"/><rect x="428" y="252" width="4" height="4" fill="#1d6b3f"/><rect x="432" y="256" width="4" height="24" fill="#0f3a22"/><rect x="432" y="256" width="4" height="4" fill="#1d6b3f"/><rect x="436" y="256" width="4" height="24" fill="#0f3a22"/><rect x="436" y="256" width="4" height="4" fill="#1d6b3f"/><rect x="440" y="256" width="4" height="24" fill="#0f3a22"/><rect x="440" y="256" width="4" height="4" fill="#1d6b3f"/><rect x="444" y="256" width="4" height="24" fill="#0f3a22"/><rect x="444" y="256" width="4" height="4" fill="#1d6b3f"/><rect x="448" y="252" width="4" height="28" fill="#0f3a22"/><rect x="448" y="252" width="4" height="4" fill="#1d6b3f"/><rect x="452" y="252" width="4" height="28" fill="#0f3a22"/><rect x="452" y="252" width="4" height="4" fill="#1d6b3f"/><rect x="456" y="256" width="4" height="24" fill="#0f3a22"/><rect x="456" y="256" width="4" height="4" fill="#1d6b3f"/><rect x="460" y="252" width="4" height="28" fill="#0f3a22"/><rect x="460" y="252" width="4" height="4" fill="#1d6b3f"/><rect x="464" y="256" width="4" height="24" fill="#0f3a22"/><rect x="464" y="256" width="4" height="4" fill="#1d6b3f"/><rect x="468" y="256" width="4" height="24" fill="#0f3a22"/><rect x="468" y="256" width="4" height="4" fill="#1d6b3f"/><rect x="472" y="256" width="4" height="24" fill="#0f3a22"/><rect x="472" y="256" width="4" height="4" fill="#1d6b3f"/><rect x="476" y="256" width="4" height="24" fill="#0f3a22"/><rect x="476" y="256" width="4" height="4" fill="#1d6b3f"/><rect x="480" y="256" width="4" height="24" fill="#0f3a22"/><rect x="480" y="256" width="4" height="4" fill="#1d6b3f"/><rect x="484" y="256" width="4" height="24" fill="#0f3a22"/><rect x="484" y="256" width="4" height="4" fill="#1d6b3f"/><rect x="488" y="256" width="4" height="24" fill="#0f3a22"/><rect x="488" y="256" width="4" height="4" fill="#1d6b3f"/><rect x="492" y="256" width="4" height="24" fill="#0f3a22"/><rect x="492" y="256" width="4" height="4" fill="#1d6b3f"/><rect x="496" y="256" width="4" height="24" fill="#0f3a22"/><rect x="496" y="256" width="4" height="4" fill="#1d6b3f"/><rect x="500" y="256" width="4" height="24" fill="#0f3a22"/><rect x="500" y="256" width="4" height="4" fill="#1d6b3f"/><rect x="504" y="252" width="4" height="28" fill="#0f3a22"/><rect x="504" y="252" width="4" height="4" fill="#1d6b3f"/><rect x="508" y="256" width="4" height="24" fill="#0f3a22"/><rect x="508" y="256" width="4" height="4" fill="#1d6b3f"/><rect x="512" y="256" width="4" height="24" fill="#0f3a22"/><rect x="512" y="256" width="4" height="4" fill="#1d6b3f"/><rect x="516" y="256" width="4" height="24" fill="#0f3a22"/><rect x="516" y="256" width="4" height="4" fill="#1d6b3f"/><rect x="520" y="256" width="4" height="24" fill="#0f3a22"/><rect x="520" y="256" width="4" height="4" fill="#1d6b3f"/><rect x="524" y="256" width="4" height="24" fill="#0f3a22"/><rect x="524" y="256" width="4" height="4" fill="#1d6b3f"/><rect x="528" y="256" width="4" height="24" fill="#0f3a22"/><rect x="528" y="256" width="4" height="4" fill="#1d6b3f"/><rect x="532" y="256" width="4" height="24" fill="#0f3a22"/><rect x="532" y="256" width="4" height="4" fill="#1d6b3f"/><rect x="536" y="256" width="4" height="24" fill="#0f3a22"/><rect x="536" y="256" width="4" height="4" fill="#1d6b3f"/><rect x="540" y="256" width="4" height="24" fill="#0f3a22"/><rect x="540" y="256" width="4" height="4" fill="#1d6b3f"/><rect x="544" y="256" width="4" height="24" fill="#0f3a22"/><rect x="544" y="256" width="4" height="4" fill="#1d6b3f"/><rect x="548" y="256" width="4" height="24" fill="#0f3a22"/><rect x="548" y="256" width="4" height="4" fill="#1d6b3f"/><rect x="552" y="256" width="4" height="24" fill="#0f3a22"/><rect x="552" y="256" width="4" height="4" fill="#1d6b3f"/><rect x="556" y="256" width="4" height="24" fill="#0f3a22"/><rect x="556" y="256" width="4" height="4" fill="#1d6b3f"/><rect x="560" y="256" width="4" height="24" fill="#0f3a22"/><rect x="560" y="256" width="4" height="4" fill="#1d6b3f"/><rect x="564" y="256" width="4" height="24" fill="#0f3a22"/><rect x="564" y="256" width="4" height="4" fill="#1d6b3f"/><rect x="568" y="256" width="4" height="24" fill="#0f3a22"/><rect x="568" y="256" width="4" height="4" fill="#1d6b3f"/><rect x="572" y="256" width="4" height="24" fill="#0f3a22"/><rect x="572" y="256" width="4" height="4" fill="#1d6b3f"/><rect x="576" y="256" width="4" height="24" fill="#0f3a22"/><rect x="576" y="256" width="4" height="4" fill="#1d6b3f"/><rect x="580" y="256" width="4" height="24" fill="#0f3a22"/><rect x="580" y="256" width="4" height="4" fill="#1d6b3f"/><rect x="584" y="256" width="4" height="24" fill="#0f3a22"/><rect x="584" y="256" width="4" height="4" fill="#1d6b3f"/><rect x="588" y="256" width="4" height="24" fill="#0f3a22"/><rect x="588" y="256" width="4" height="4" fill="#1d6b3f"/><rect x="592" y="256" width="4" height="24" fill="#0f3a22"/><rect x="592" y="256" width="4" height="4" fill="#1d6b3f"/><rect x="596" y="252" width="4" height="28" fill="#0f3a22"/><rect x="596" y="252" width="4" height="4" fill="#1d6b3f"/><rect x="600" y="252" width="4" height="28" fill="#0f3a22"/><rect x="600" y="252" width="4" height="4" fill="#1d6b3f"/><rect x="604" y="252" width="4" height="28" fill="#0f3a22"/><rect x="604" y="252" width="4" height="4" fill="#1d6b3f"/><rect x="608" y="252" width="4" height="28" fill="#0f3a22"/><rect x="608" y="252" width="4" height="4" fill="#1d6b3f"/><rect x="612" y="248" width="4" height="32" fill="#0f3a22"/><rect x="612" y="248" width="4" height="4" fill="#1d6b3f"/><rect x="616" y="248" width="4" height="32" fill="#0f3a22"/><rect x="616" y="248" width="4" height="4" fill="#1d6b3f"/><rect x="620" y="248" width="4" height="32" fill="#0f3a22"/><rect x="620" y="248" width="4" height="4" fill="#1d6b3f"/><rect x="624" y="248" width="4" height="32" fill="#0f3a22"/><rect x="624" y="248" width="4" height="4" fill="#1d6b3f"/><rect x="628" y="248" width="4" height="32" fill="#0f3a22"/><rect x="628" y="248" width="4" height="4" fill="#1d6b3f"/><rect x="632" y="248" width="4" height="32" fill="#0f3a22"/><rect x="632" y="248" width="4" height="4" fill="#1d6b3f"/><rect x="636" y="244" width="4" height="36" fill="#0f3a22"/><rect x="636" y="244" width="4" height="4" fill="#1d6b3f"/><rect x="640" y="244" width="4" height="36" fill="#0f3a22"/><rect x="640" y="244" width="4" height="4" fill="#1d6b3f"/><rect x="644" y="244" width="4" height="36" fill="#0f3a22"/><rect x="644" y="244" width="4" height="4" fill="#1d6b3f"/><rect x="648" y="244" width="4" height="36" fill="#0f3a22"/><rect x="648" y="244" width="4" height="4" fill="#1d6b3f"/><rect x="652" y="240" width="4" height="40" fill="#0f3a22"/><rect x="652" y="240" width="4" height="4" fill="#1d6b3f"/><rect x="656" y="236" width="4" height="44" fill="#0f3a22"/><rect x="656" y="236" width="4" height="4" fill="#1d6b3f"/><rect x="660" y="236" width="4" height="44" fill="#0f3a22"/><rect x="660" y="236" width="4" height="4" fill="#1d6b3f"/><rect x="664" y="236" width="4" height="44" fill="#0f3a22"/><rect x="664" y="236" width="4" height="4" fill="#1d6b3f"/><rect x="668" y="236" width="4" height="44" fill="#0f3a22"/><rect x="668" y="236" width="4" height="4" fill="#1d6b3f"/><rect x="672" y="236" width="4" height="44" fill="#0f3a22"/><rect x="672" y="236" width="4" height="4" fill="#1d6b3f"/><rect x="676" y="236" width="4" height="44" fill="#0f3a22"/><rect x="676" y="236" width="4" height="4" fill="#1d6b3f"/><rect x="680" y="236" width="4" height="44" fill="#0f3a22"/><rect x="680" y="236" width="4" height="4" fill="#1d6b3f"/><rect x="684" y="240" width="4" height="40" fill="#0f3a22"/><rect x="684" y="240" width="4" height="4" fill="#1d6b3f"/><rect x="688" y="240" width="4" height="40" fill="#0f3a22"/><rect x="688" y="240" width="4" height="4" fill="#1d6b3f"/><rect x="692" y="240" width="4" height="40" fill="#0f3a22"/><rect x="692" y="240" width="4" height="4" fill="#1d6b3f"/><rect x="696" y="240" width="4" height="40" fill="#0f3a22"/><rect x="696" y="240" width="4" height="4" fill="#1d6b3f"/><rect x="700" y="240" width="4" height="40" fill="#0f3a22"/><rect x="700" y="240" width="4" height="4" fill="#1d6b3f"/><rect x="704" y="240" width="4" height="40" fill="#0f3a22"/><rect x="704" y="240" width="4" height="4" fill="#1d6b3f"/><rect x="708" y="240" width="4" height="40" fill="#0f3a22"/><rect x="708" y="240" width="4" height="4" fill="#1d6b3f"/><rect x="712" y="240" width="4" height="40" fill="#0f3a22"/><rect x="712" y="240" width="4" height="4" fill="#1d6b3f"/><rect x="716" y="240" width="4" height="40" fill="#0f3a22"/><rect x="716" y="240" width="4" height="4" fill="#1d6b3f"/><rect x="720" y="240" width="4" height="40" fill="#0f3a22"/><rect x="720" y="240" width="4" height="4" fill="#1d6b3f"/><rect x="724" y="240" width="4" height="40" fill="#0f3a22"/><rect x="724" y="240" width="4" height="4" fill="#1d6b3f"/><rect x="728" y="244" width="4" height="36" fill="#0f3a22"/><rect x="728" y="244" width="4" height="4" fill="#1d6b3f"/><rect x="732" y="248" width="4" height="32" fill="#0f3a22"/><rect x="732" y="248" width="4" height="4" fill="#1d6b3f"/><rect x="736" y="244" width="4" height="36" fill="#0f3a22"/><rect x="736" y="244" width="4" height="4" fill="#1d6b3f"/><rect x="740" y="240" width="4" height="40" fill="#0f3a22"/><rect x="740" y="240" width="4" height="4" fill="#1d6b3f"/><rect x="744" y="240" width="4" height="40" fill="#0f3a22"/><rect x="744" y="240" width="4" height="4" fill="#1d6b3f"/><rect x="748" y="244" width="4" height="36" fill="#0f3a22"/><rect x="748" y="244" width="4" height="4" fill="#1d6b3f"/><rect x="752" y="240" width="4" height="40" fill="#0f3a22"/><rect x="752" y="240" width="4" height="4" fill="#1d6b3f"/><rect x="756" y="240" width="4" height="40" fill="#0f3a22"/><rect x="756" y="240" width="4" height="4" fill="#1d6b3f"/><rect x="760" y="240" width="4" height="40" fill="#0f3a22"/><rect x="760" y="240" width="4" height="4" fill="#1d6b3f"/><rect x="764" y="236" width="4" height="44" fill="#0f3a22"/><rect x="764" y="236" width="4" height="4" fill="#1d6b3f"/><rect x="768" y="236" width="4" height="44" fill="#0f3a22"/><rect x="768" y="236" width="4" height="4" fill="#1d6b3f"/><rect x="772" y="236" width="4" height="44" fill="#0f3a22"/><rect x="772" y="236" width="4" height="4" fill="#1d6b3f"/><rect x="776" y="236" width="4" height="44" fill="#0f3a22"/><rect x="776" y="236" width="4" height="4" fill="#1d6b3f"/><rect x="780" y="236" width="4" height="44" fill="#0f3a22"/><rect x="780" y="236" width="4" height="4" fill="#1d6b3f"/><rect x="784" y="236" width="4" height="44" fill="#0f3a22"/><rect x="784" y="236" width="4" height="4" fill="#1d6b3f"/><rect x="788" y="234" width="4" height="46" fill="#0f3a22"/><rect x="788" y="234" width="4" height="4" fill="#1d6b3f"/><rect x="792" y="234" width="4" height="46" fill="#0f3a22"/><rect x="792" y="234" width="4" height="4" fill="#1d6b3f"/><rect x="796" y="234" width="4" height="46" fill="#0f3a22"/><rect x="796" y="234" width="4" height="4" fill="#1d6b3f"/><rect x="800" y="234" width="4" height="46" fill="#0f3a22"/><rect x="800" y="234" width="4" height="4" fill="#1d6b3f"/><rect x="804" y="234" width="4" height="46" fill="#0f3a22"/><rect x="804" y="234" width="4" height="4" fill="#1d6b3f"/><rect x="808" y="234" width="4" height="46" fill="#0f3a22"/><rect x="808" y="234" width="4" height="4" fill="#1d6b3f"/><rect x="812" y="238" width="4" height="42" fill="#0f3a22"/><rect x="812" y="238" width="4" height="4" fill="#1d6b3f"/><rect x="816" y="242" width="4" height="38" fill="#0f3a22"/><rect x="816" y="242" width="4" height="4" fill="#1d6b3f"/><rect x="820" y="242" width="4" height="38" fill="#0f3a22"/><rect x="820" y="242" width="4" height="4" fill="#1d6b3f"/><rect x="824" y="246" width="4" height="34" fill="#0f3a22"/><rect x="824" y="246" width="4" height="4" fill="#1d6b3f"/><rect x="828" y="242" width="4" height="38" fill="#0f3a22"/><rect x="828" y="242" width="4" height="4" fill="#1d6b3f"/><rect x="832" y="246" width="4" height="34" fill="#0f3a22"/><rect x="832" y="246" width="4" height="4" fill="#1d6b3f"/><rect x="836" y="250" width="4" height="30" fill="#0f3a22"/><rect x="836" y="250" width="4" height="4" fill="#1d6b3f"/><rect x="840" y="250" width="4" height="30" fill="#0f3a22"/><rect x="840" y="250" width="4" height="4" fill="#1d6b3f"/><rect x="844" y="250" width="4" height="30" fill="#0f3a22"/><rect x="844" y="250" width="4" height="4" fill="#1d6b3f"/><rect x="848" y="250" width="4" height="30" fill="#0f3a22"/><rect x="848" y="250" width="4" height="4" fill="#1d6b3f"/><rect x="852" y="246" width="4" height="34" fill="#0f3a22"/><rect x="852" y="246" width="4" height="4" fill="#1d6b3f"/><rect x="856" y="242" width="4" height="38" fill="#0f3a22"/><rect x="856" y="242" width="4" height="4" fill="#1d6b3f"/><rect x="588" y="264" width="4" height="4" fill="#0b2b1a"/><rect x="772" y="244" width="4" height="4" fill="#155c31"/><rect x="408" y="272" width="4" height="4" fill="#0b2b1a"/><rect x="268" y="272" width="4" height="4" fill="#155c31"/><rect x="128" y="248" width="4" height="4" fill="#155c31"/><rect x="708" y="264" width="4" height="4" fill="#155c31"/><rect x="428" y="272" width="4" height="4" fill="#26a641"/><rect x="180" y="264" width="4" height="4" fill="#155c31"/><rect x="212" y="256" width="4" height="4" fill="#155c31"/><rect x="584" y="272" width="4" height="4" fill="#26a641"/><rect x="388" y="260" width="4" height="4" fill="#155c31"/><rect x="584" y="268" width="4" height="4" fill="#155c31"/><rect x="680" y="248" width="4" height="4" fill="#0b2b1a"/><rect x="544" y="260" width="4" height="4" fill="#155c31"/><rect x="532" y="260" width="4" height="4" fill="#0b2b1a"/><rect x="336" y="268" width="4" height="4" fill="#0b2b1a"/><rect x="340" y="252" width="4" height="4" fill="#26a641"/><rect x="696" y="260" width="4" height="4" fill="#155c31"/><rect x="648" y="248" width="4" height="4" fill="#26a641"/><rect x="324" y="268" width="4" height="4" fill="#155c31"/><rect x="168" y="248" width="4" height="4" fill="#26a641"/><rect x="48" y="264" width="4" height="4" fill="#0b2b1a"/><rect x="48" y="260" width="4" height="4" fill="#26a641"/><rect x="232" y="272" width="4" height="4" fill="#155c31"/><rect x="160" y="272" width="4" height="4" fill="#155c31"/><rect x="56" y="268" width="4" height="4" fill="#0b2b1a"/><rect x="824" y="256" width="4" height="4" fill="#0b2b1a"/><rect x="496" y="260" width="4" height="4" fill="#155c31"/><rect x="280" y="264" width="4" height="4" fill="#0b2b1a"/><rect x="572" y="260" width="4" height="4" fill="#26a641"/><rect x="176" y="268" width="4" height="4" fill="#155c31"/><rect x="668" y="244" width="4" height="4" fill="#26a641"/><rect x="692" y="244" width="4" height="4" fill="#26a641"/><rect x="128" y="248" width="4" height="4" fill="#0b2b1a"/><rect x="556" y="260" width="4" height="4" fill="#0b2b1a"/><rect x="776" y="272" width="4" height="4" fill="#26a641"/><rect x="388" y="260" width="4" height="4" fill="#155c31"/><rect x="800" y="252" width="4" height="4" fill="#26a641"/><rect x="620" y="268" width="4" height="4" fill="#0b2b1a"/><rect x="348" y="256" width="4" height="4" fill="#155c31"/><rect x="828" y="264" width="4" height="4" fill="#155c31"/><rect x="192" y="256" width="4" height="4" fill="#0b2b1a"/><rect x="756" y="244" width="4" height="4" fill="#0b2b1a"/><rect x="508" y="268" width="4" height="4" fill="#26a641"/><rect x="748" y="248" width="4" height="4" fill="#0b2b1a"/><rect x="384" y="268" width="4" height="4" fill="#0b2b1a"/><rect x="800" y="252" width="4" height="4" fill="#26a641"/><rect x="452" y="256" width="4" height="4" fill="#0b2b1a"/><rect x="856" y="248" width="4" height="4" fill="#155c31"/><rect x="380" y="264" width="4" height="4" fill="#155c31"/><rect x="600" y="256" width="4" height="4" fill="#26a641"/><rect x="404" y="260" width="4" height="4" fill="#155c31"/><rect x="160" y="248" width="4" height="4" fill="#0b2b1a"/><rect x="292" y="264" width="4" height="4" fill="#155c31"/><rect x="124" y="272" width="4" height="4" fill="#155c31"/><rect x="820" y="248" width="4" height="4" fill="#0b2b1a"/><rect x="360" y="256" width="4" height="4" fill="#26a641"/><rect x="696" y="252" width="4" height="4" fill="#155c31"/><rect x="676" y="260" width="4" height="4" fill="#0b2b1a"/><rect x="384" y="272" width="4" height="4" fill="#155c31"/><rect x="624" y="256" width="4" height="4" fill="#26a641"/><rect x="152" y="268" width="4" height="4" fill="#26a641"/><rect x="16" y="268" width="4" height="4" fill="#155c31"/><rect x="756" y="256" width="4" height="4" fill="#155c31"/><rect x="524" y="268" width="4" height="4" fill="#0b2b1a"/><rect x="176" y="260" width="4" height="4" fill="#155c31"/><rect x="52" y="252" width="4" height="4" fill="#0b2b1a"/><rect x="660" y="256" width="4" height="4" fill="#0b2b1a"/><rect x="580" y="260" width="4" height="4" fill="#155c31"/><rect x="4" y="268" width="4" height="4" fill="#0b2b1a"/><ellipse cx="205" cy="254" rx="26" ry="7" fill="#0b2b1a"/><ellipse cx="205" cy="252" rx="22" ry="5" fill="#124a2a"/><ellipse cx="475" cy="272" rx="20" ry="7" fill="#0b2b1a"/><ellipse cx="475" cy="270" rx="16" ry="5" fill="#124a2a"/><ellipse cx="645" cy="260" rx="24" ry="7" fill="#0b2b1a"/><ellipse cx="645" cy="258" rx="20" ry="5" fill="#124a2a"/></g>
  <line x1="118" y1="138" x2="184" y2="108" stroke="#8b949e" stroke-width="0.5" opacity="0.25"/><line x1="184" y1="108" x2="246" y2="96" stroke="#8b949e" stroke-width="0.5" opacity="0.25"/><line x1="246" y1="96" x2="302" y2="90" stroke="#8b949e" stroke-width="0.5" opacity="0.25"/><line x1="302" y1="90" x2="424" y2="72" stroke="#8b949e" stroke-width="0.5" opacity="0.25"/><line x1="424" y1="72" x2="416" y2="142" stroke="#8b949e" stroke-width="0.5" opacity="0.25"/><line x1="416" y1="142" x2="308" y2="152" stroke="#8b949e" stroke-width="0.5" opacity="0.25"/><line x1="308" y1="152" x2="302" y2="90" stroke="#8b949e" stroke-width="0.5" opacity="0.25"/><g><circle cx="118" cy="138" r="9.6" fill="#e6edf3" opacity="0.12"/><circle cx="118" cy="138" r="5.4" fill="#e6edf3" opacity="0.3"/><line x1="98.8" y1="138" x2="137.2" y2="138" stroke="#e6edf3" stroke-width="0.6" opacity="0.5"/><line x1="118" y1="118.8" x2="118" y2="157.2" stroke="#e6edf3" stroke-width="0.6" opacity="0.5"/><circle cx="118" cy="138" r="3.2" fill="#e6edf3"/></g><text x="118" y="157.2" text-anchor="middle" class="focus">data engineering</text><g class="tw"><circle cx="184" cy="108" r="9.0" fill="#e6edf3" opacity="0.12"/><circle cx="184" cy="108" r="5.1" fill="#e6edf3" opacity="0.3"/><line x1="166.0" y1="108" x2="202.0" y2="108" stroke="#e6edf3" stroke-width="0.6" opacity="0.5"/><line x1="184" y1="90.0" x2="184" y2="126.0" stroke="#e6edf3" stroke-width="0.6" opacity="0.5"/><circle cx="184" cy="108" r="3.0" fill="#e6edf3"/></g><text x="184" y="95.0" text-anchor="middle" class="focus">nlp</text><g><circle cx="246" cy="96" r="9.9" fill="#e6edf3" opacity="0.12"/><circle cx="246" cy="96" r="5.6" fill="#e6edf3" opacity="0.3"/><line x1="226.2" y1="96" x2="265.8" y2="96" stroke="#e6edf3" stroke-width="0.6" opacity="0.5"/><line x1="246" y1="76.2" x2="246" y2="115.8" stroke="#e6edf3" stroke-width="0.6" opacity="0.5"/><circle cx="246" cy="96" r="3.3" fill="#e6edf3"/></g><text x="246" y="115.3" text-anchor="middle" class="focus">machine learning</text><g class="tw3"><circle cx="302" cy="90" r="4.8" fill="#e6edf3" opacity="0.12"/><circle cx="302" cy="90" r="2.7" fill="#e6edf3" opacity="0.3"/><line x1="292.4" y1="90" x2="311.6" y2="90" stroke="#e6edf3" stroke-width="0.6" opacity="0.5"/><line x1="302" y1="80.4" x2="302" y2="99.6" stroke="#e6edf3" stroke-width="0.6" opacity="0.5"/><circle cx="302" cy="90" r="1.6" fill="#e6edf3"/></g><text x="302" y="78.4" text-anchor="middle" class="focus">rust systems</text><g><circle cx="424" cy="72" r="9.9" fill="#f0c674" opacity="0.12"/><circle cx="424" cy="72" r="5.6" fill="#f0c674" opacity="0.3"/><line x1="404.2" y1="72" x2="443.8" y2="72" stroke="#f0c674" stroke-width="0.6" opacity="0.5"/><line x1="424" y1="52.2" x2="424" y2="91.8" stroke="#f0c674" stroke-width="0.6" opacity="0.5"/><circle cx="424" cy="72" r="3.3" fill="#f0c674"/></g><text x="424" y="58.7" text-anchor="middle" class="focus">ai research</text><g class="tw"><circle cx="416" cy="142" r="8.1" fill="#e6edf3" opacity="0.12"/><circle cx="416" cy="142" r="4.6" fill="#e6edf3" opacity="0.3"/><line x1="399.8" y1="142" x2="432.2" y2="142" stroke="#e6edf3" stroke-width="0.6" opacity="0.5"/><line x1="416" y1="125.8" x2="416" y2="158.2" stroke="#e6edf3" stroke-width="0.6" opacity="0.5"/><circle cx="416" cy="142" r="2.7" fill="#e6edf3"/></g><text x="416" y="160.7" text-anchor="middle" class="focus">web intelligence</text><g><circle cx="308" cy="152" r="7.8" fill="#e6edf3" opacity="0.12"/><circle cx="308" cy="152" r="4.4" fill="#e6edf3" opacity="0.3"/><line x1="292.4" y1="152" x2="323.6" y2="152" stroke="#e6edf3" stroke-width="0.6" opacity="0.5"/><line x1="308" y1="136.4" x2="308" y2="167.6" stroke="#e6edf3" stroke-width="0.6" opacity="0.5"/><circle cx="308" cy="152" r="2.6" fill="#e6edf3"/></g><text x="308" y="170.6" text-anchor="middle" class="focus">data viz</text><circle cx="193" cy="101" r="1.2" fill="#e6edf3" opacity="0.75"/>
  <g shape-rendering="crispEdges"><rect x="128" y="212" width="4" height="4" fill="#f85149" class="blink"/><rect x="132" y="212" width="4" height="4" fill="#f85149" class="blink"/><rect x="128" y="216" width="4" height="4" fill="#9fc4ff"/><rect x="132" y="216" width="4" height="4" fill="#9fc4ff"/><rect x="124" y="220" width="4" height="4" fill="#4493f8"/><rect x="128" y="220" width="4" height="4" fill="#4493f8"/><rect x="132" y="220" width="4" height="4" fill="#4493f8"/><rect x="136" y="220" width="4" height="4" fill="#4493f8"/><rect x="120" y="224" width="4" height="4" fill="#4493f8"/><rect x="124" y="224" width="4" height="4" fill="#4493f8"/><rect x="128" y="224" width="4" height="4" fill="#4493f8"/><rect x="132" y="224" width="4" height="4" fill="#4493f8"/><rect x="136" y="224" width="4" height="4" fill="#4493f8"/><rect x="140" y="224" width="4" height="4" fill="#4493f8"/><rect x="120" y="228" width="4" height="4" fill="#4493f8"/><rect x="124" y="228" width="4" height="4" fill="#9fc4ff"/><rect x="128" y="228" width="4" height="4" fill="#4493f8"/><rect x="132" y="228" width="4" height="4" fill="#4493f8"/><rect x="136" y="228" width="4" height="4" fill="#9fc4ff"/><rect x="140" y="228" width="4" height="4" fill="#4493f8"/><rect x="116" y="232" width="4" height="4" fill="#4493f8"/><rect x="120" y="232" width="4" height="4" fill="#4493f8"/><rect x="124" y="232" width="4" height="4" fill="#4493f8"/><rect x="128" y="232" width="4" height="4" fill="#4493f8"/><rect x="132" y="232" width="4" height="4" fill="#4493f8"/><rect x="136" y="232" width="4" height="4" fill="#4493f8"/><rect x="140" y="232" width="4" height="4" fill="#4493f8"/><rect x="144" y="232" width="4" height="4" fill="#4493f8"/><rect x="116" y="236" width="4" height="4" fill="#6e7681"/><rect x="128" y="236" width="4" height="4" fill="#6e7681"/><rect x="132" y="236" width="4" height="4" fill="#6e7681"/><rect x="144" y="236" width="4" height="4" fill="#6e7681"/></g>
  <rect x="503" y="198" width="4" height="58" fill="#6e7681"/><rect x="463" y="172" width="84" height="26" rx="4" fill="#161b22" stroke="#4d9fea" stroke-width="1.5"/><text x="505" y="189" text-anchor="middle" class="sign" fill="#4d9fea">LinkedIn</text><rect x="714" y="198" width="4" height="46" fill="#6e7681"/><rect x="674" y="172" width="84" height="26" rx="4" fill="#161b22" stroke="#39d353" stroke-width="1.5"/><text x="716" y="189" text-anchor="middle" class="sign" fill="#39d353">Email</text>
  </g>
</svg>
