<svg width="287" height="180" viewBox="0 0 287 180" xmlns="http://www.w3.org/2000/svg" role="img" aria-label="Planet surface footer — ship">
  <style>
    .tw { animation: twinkle 3.2s ease-in-out infinite; }
    .tw2 { animation: twinkle 4.1s ease-in-out infinite; animation-delay: 1.3s; }
    .tw3 { animation: twinkle 2.6s ease-in-out infinite; animation-delay: 0.7s; }
    @keyframes twinkle { 0%, 100% { opacity: 1; } 50% { opacity: 0.15; } }
    .drift { animation: drift 14.8s linear infinite; }
    @keyframes drift { from { transform: translateY(0); } to { transform: translateY(180px); } }

    .sign { font: 600 13px ui-monospace, 'Cascadia Code', 'Fira Code', Consolas, monospace; }
    .touch { font: 500 13px ui-monospace, 'Cascadia Code', 'Fira Code', Consolas, monospace; fill: #6e7681; letter-spacing: 1px; }
    .blink { animation: blink 2s step-end infinite; }
    @keyframes blink { 0%, 100% { opacity: 1; } 50% { opacity: 0.15; } }
  </style>

  <rect width="287" height="180" fill="#0d1117"/>
  <g class="drift">
    <g id="fstars0">
      <circle cx="143" cy="49" r="1.3" fill="#ffffff" opacity="0.72"/>
      <circle cx="72" cy="85" r="1.6" fill="#ffffff" opacity="0.9"/>
      <circle cx="28" cy="58" r="1.3" fill="#ffffff" opacity="0.72"/>
      <circle cx="28" cy="29" r="1.4" fill="#ffffff" opacity="0.78" class="tw3"/>
      <circle cx="277" cy="58" r="0.9" fill="#ffffff" opacity="0.47"/>
      <circle cx="275" cy="60" r="1.2" fill="#ffffff" opacity="0.66"/>
      <circle cx="173" cy="114" r="1.5" fill="#ffffff" opacity="0.84" class="tw2"/>
      <circle cx="273" cy="124" r="1.4" fill="#ffffff" opacity="0.78"/>
      <circle cx="225" cy="115" r="1.1" fill="#ffffff" opacity="0.59"/>
      <circle cx="67" cy="49" r="1.5" fill="#ffffff" opacity="0.84" class="tw"/>
      <circle cx="199" cy="21" r="1.5" fill="#ffffff" opacity="0.84"/>
      <circle cx="80" cy="124" r="1.1" fill="#ffffff" opacity="0.59"/>
    </g>
    <use href="#fstars0" y="-180"/>
  </g>
  <g transform="translate(0,0)">
  <g shape-rendering="crispEdges"><rect x="0" y="146" width="4" height="34" fill="#0f3a22"/><rect x="0" y="146" width="4" height="4" fill="#1d6b3f"/><rect x="4" y="146" width="4" height="34" fill="#0f3a22"/><rect x="4" y="146" width="4" height="4" fill="#1d6b3f"/><rect x="8" y="146" width="4" height="34" fill="#0f3a22"/><rect x="8" y="146" width="4" height="4" fill="#1d6b3f"/><rect x="12" y="142" width="4" height="38" fill="#0f3a22"/><rect x="12" y="142" width="4" height="4" fill="#1d6b3f"/><rect x="16" y="142" width="4" height="38" fill="#0f3a22"/><rect x="16" y="142" width="4" height="4" fill="#1d6b3f"/><rect x="20" y="142" width="4" height="38" fill="#0f3a22"/><rect x="20" y="142" width="4" height="4" fill="#1d6b3f"/><rect x="24" y="142" width="4" height="38" fill="#0f3a22"/><rect x="24" y="142" width="4" height="4" fill="#1d6b3f"/><rect x="28" y="142" width="4" height="38" fill="#0f3a22"/><rect x="28" y="142" width="4" height="4" fill="#1d6b3f"/><rect x="32" y="146" width="4" height="34" fill="#0f3a22"/><rect x="32" y="146" width="4" height="4" fill="#1d6b3f"/><rect x="36" y="146" width="4" height="34" fill="#0f3a22"/><rect x="36" y="146" width="4" height="4" fill="#1d6b3f"/><rect x="40" y="146" width="4" height="34" fill="#0f3a22"/><rect x="40" y="146" width="4" height="4" fill="#1d6b3f"/><rect x="44" y="142" width="4" height="38" fill="#0f3a22"/><rect x="44" y="142" width="4" height="4" fill="#1d6b3f"/><rect x="48" y="138" width="4" height="42" fill="#0f3a22"/><rect x="48" y="138" width="4" height="4" fill="#1d6b3f"/><rect x="52" y="142" width="4" height="38" fill="#0f3a22"/><rect x="52" y="142" width="4" height="4" fill="#1d6b3f"/><rect x="56" y="138" width="4" height="42" fill="#0f3a22"/><rect x="56" y="138" width="4" height="4" fill="#1d6b3f"/><rect x="60" y="138" width="4" height="42" fill="#0f3a22"/><rect x="60" y="138" width="4" height="4" fill="#1d6b3f"/><rect x="64" y="138" width="4" height="42" fill="#0f3a22"/><rect x="64" y="138" width="4" height="4" fill="#1d6b3f"/><rect x="68" y="138" width="4" height="42" fill="#0f3a22"/><rect x="68" y="138" width="4" height="4" fill="#1d6b3f"/><rect x="72" y="134" width="4" height="46" fill="#0f3a22"/><rect x="72" y="134" width="4" height="4" fill="#1d6b3f"/><rect x="76" y="134" width="4" height="46" fill="#0f3a22"/><rect x="76" y="134" width="4" height="4" fill="#1d6b3f"/><rect x="80" y="134" width="4" height="46" fill="#0f3a22"/><rect x="80" y="134" width="4" height="4" fill="#1d6b3f"/><rect x="84" y="134" width="4" height="46" fill="#0f3a22"/><rect x="84" y="134" width="4" height="4" fill="#1d6b3f"/><rect x="88" y="134" width="4" height="46" fill="#0f3a22"/><rect x="88" y="134" width="4" height="4" fill="#1d6b3f"/><rect x="92" y="134" width="4" height="46" fill="#0f3a22"/><rect x="92" y="134" width="4" height="4" fill="#1d6b3f"/><rect x="96" y="134" width="4" height="46" fill="#0f3a22"/><rect x="96" y="134" width="4" height="4" fill="#1d6b3f"/><rect x="100" y="134" width="4" height="46" fill="#0f3a22"/><rect x="100" y="134" width="4" height="4" fill="#1d6b3f"/><rect x="104" y="134" width="4" height="46" fill="#0f3a22"/><rect x="104" y="134" width="4" height="4" fill="#1d6b3f"/><rect x="108" y="134" width="4" height="46" fill="#0f3a22"/><rect x="108" y="134" width="4" height="4" fill="#1d6b3f"/><rect x="112" y="134" width="4" height="46" fill="#0f3a22"/><rect x="112" y="134" width="4" height="4" fill="#1d6b3f"/><rect x="116" y="138" width="4" height="42" fill="#0f3a22"/><rect x="116" y="138" width="4" height="4" fill="#1d6b3f"/><rect x="120" y="134" width="4" height="46" fill="#0f3a22"/><rect x="120" y="134" width="4" height="4" fill="#1d6b3f"/><rect x="124" y="138" width="4" height="42" fill="#0f3a22"/><rect x="124" y="138" width="4" height="4" fill="#1d6b3f"/><rect x="128" y="138" width="4" height="42" fill="#0f3a22"/><rect x="128" y="138" width="4" height="4" fill="#1d6b3f"/><rect x="132" y="138" width="4" height="42" fill="#0f3a22"/><rect x="132" y="138" width="4" height="4" fill="#1d6b3f"/><rect x="136" y="138" width="4" height="42" fill="#0f3a22"/><rect x="136" y="138" width="4" height="4" fill="#1d6b3f"/><rect x="140" y="142" width="4" height="38" fill="#0f3a22"/><rect x="140" y="142" width="4" height="4" fill="#1d6b3f"/><rect x="144" y="142" width="4" height="38" fill="#0f3a22"/><rect x="144" y="142" width="4" height="4" fill="#1d6b3f"/><rect x="148" y="138" width="4" height="42" fill="#0f3a22"/><rect x="148" y="138" width="4" height="4" fill="#1d6b3f"/><rect x="152" y="142" width="4" height="38" fill="#0f3a22"/><rect x="152" y="142" width="4" height="4" fill="#1d6b3f"/><rect x="156" y="142" width="4" height="38" fill="#0f3a22"/><rect x="156" y="142" width="4" height="4" fill="#1d6b3f"/><rect x="160" y="142" width="4" height="38" fill="#0f3a22"/><rect x="160" y="142" width="4" height="4" fill="#1d6b3f"/><rect x="164" y="142" width="4" height="38" fill="#0f3a22"/><rect x="164" y="142" width="4" height="4" fill="#1d6b3f"/><rect x="168" y="138" width="4" height="42" fill="#0f3a22"/><rect x="168" y="138" width="4" height="4" fill="#1d6b3f"/><rect x="172" y="142" width="4" height="38" fill="#0f3a22"/><rect x="172" y="142" width="4" height="4" fill="#1d6b3f"/><rect x="176" y="142" width="4" height="38" fill="#0f3a22"/><rect x="176" y="142" width="4" height="4" fill="#1d6b3f"/><rect x="180" y="138" width="4" height="42" fill="#0f3a22"/><rect x="180" y="138" width="4" height="4" fill="#1d6b3f"/><rect x="184" y="138" width="4" height="42" fill="#0f3a22"/><rect x="184" y="138" width="4" height="4" fill="#1d6b3f"/><rect x="188" y="134" width="4" height="46" fill="#0f3a22"/><rect x="188" y="134" width="4" height="4" fill="#1d6b3f"/><rect x="192" y="134" width="4" height="46" fill="#0f3a22"/><rect x="192" y="134" width="4" height="4" fill="#1d6b3f"/><rect x="196" y="138" width="4" height="42" fill="#0f3a22"/><rect x="196" y="138" width="4" height="4" fill="#1d6b3f"/><rect x="200" y="138" width="4" height="42" fill="#0f3a22"/><rect x="200" y="138" width="4" height="4" fill="#1d6b3f"/><rect x="204" y="138" width="4" height="42" fill="#0f3a22"/><rect x="204" y="138" width="4" height="4" fill="#1d6b3f"/><rect x="208" y="138" width="4" height="42" fill="#0f3a22"/><rect x="208" y="138" width="4" height="4" fill="#1d6b3f"/><rect x="212" y="138" width="4" height="42" fill="#0f3a22"/><rect x="212" y="138" width="4" height="4" fill="#1d6b3f"/><rect x="216" y="138" width="4" height="42" fill="#0f3a22"/><rect x="216" y="138" width="4" height="4" fill="#1d6b3f"/><rect x="220" y="134" width="4" height="46" fill="#0f3a22"/><rect x="220" y="134" width="4" height="4" fill="#1d6b3f"/><rect x="224" y="134" width="4" height="46" fill="#0f3a22"/><rect x="224" y="134" width="4" height="4" fill="#1d6b3f"/><rect x="228" y="134" width="4" height="46" fill="#0f3a22"/><rect x="228" y="134" width="4" height="4" fill="#1d6b3f"/><rect x="232" y="134" width="4" height="46" fill="#0f3a22"/><rect x="232" y="134" width="4" height="4" fill="#1d6b3f"/><rect x="236" y="138" width="4" height="42" fill="#0f3a22"/><rect x="236" y="138" width="4" height="4" fill="#1d6b3f"/><rect x="240" y="142" width="4" height="38" fill="#0f3a22"/><rect x="240" y="142" width="4" height="4" fill="#1d6b3f"/><rect x="244" y="146" width="4" height="34" fill="#0f3a22"/><rect x="244" y="146" width="4" height="4" fill="#1d6b3f"/><rect x="248" y="146" width="4" height="34" fill="#0f3a22"/><rect x="248" y="146" width="4" height="4" fill="#1d6b3f"/><rect x="252" y="146" width="4" height="34" fill="#0f3a22"/><rect x="252" y="146" width="4" height="4" fill="#1d6b3f"/><rect x="256" y="146" width="4" height="34" fill="#0f3a22"/><rect x="256" y="146" width="4" height="4" fill="#1d6b3f"/><rect x="260" y="150" width="4" height="30" fill="#0f3a22"/><rect x="260" y="150" width="4" height="4" fill="#1d6b3f"/><rect x="264" y="150" width="4" height="30" fill="#0f3a22"/><rect x="264" y="150" width="4" height="4" fill="#1d6b3f"/><rect x="268" y="154" width="4" height="26" fill="#0f3a22"/><rect x="268" y="154" width="4" height="4" fill="#1d6b3f"/><rect x="272" y="154" width="4" height="26" fill="#0f3a22"/><rect x="272" y="154" width="4" height="4" fill="#1d6b3f"/><rect x="276" y="154" width="4" height="26" fill="#0f3a22"/><rect x="276" y="154" width="4" height="4" fill="#1d6b3f"/><rect x="280" y="150" width="4" height="30" fill="#0f3a22"/><rect x="280" y="150" width="4" height="4" fill="#1d6b3f"/><rect x="284" y="154" width="4" height="26" fill="#0f3a22"/><rect x="284" y="154" width="4" height="4" fill="#1d6b3f"/><rect x="288" y="154" width="4" height="26" fill="#0f3a22"/><rect x="288" y="154" width="4" height="4" fill="#1d6b3f"/><rect x="292" y="154" width="4" height="26" fill="#0f3a22"/><rect x="292" y="154" width="4" height="4" fill="#1d6b3f"/><rect x="296" y="154" width="4" height="26" fill="#0f3a22"/><rect x="296" y="154" width="4" height="4" fill="#1d6b3f"/><rect x="300" y="150" width="4" height="30" fill="#0f3a22"/><rect x="300" y="150" width="4" height="4" fill="#1d6b3f"/><rect x="304" y="150" width="4" height="30" fill="#0f3a22"/><rect x="304" y="150" width="4" height="4" fill="#1d6b3f"/><rect x="308" y="150" width="4" height="30" fill="#0f3a22"/><rect x="308" y="150" width="4" height="4" fill="#1d6b3f"/><rect x="312" y="154" width="4" height="26" fill="#0f3a22"/><rect x="312" y="154" width="4" height="4" fill="#1d6b3f"/><rect x="316" y="154" width="4" height="26" fill="#0f3a22"/><rect x="316" y="154" width="4" height="4" fill="#1d6b3f"/><rect x="320" y="154" width="4" height="26" fill="#0f3a22"/><rect x="320" y="154" width="4" height="4" fill="#1d6b3f"/><rect x="324" y="154" width="4" height="26" fill="#0f3a22"/><rect x="324" y="154" width="4" height="4" fill="#1d6b3f"/><rect x="328" y="150" width="4" height="30" fill="#0f3a22"/><rect x="328" y="150" width="4" height="4" fill="#1d6b3f"/><rect x="332" y="150" width="4" height="30" fill="#0f3a22"/><rect x="332" y="150" width="4" height="4" fill="#1d6b3f"/><rect x="336" y="150" width="4" height="30" fill="#0f3a22"/><rect x="336" y="150" width="4" height="4" fill="#1d6b3f"/><rect x="340" y="150" width="4" height="30" fill="#0f3a22"/><rect x="340" y="150" width="4" height="4" fill="#1d6b3f"/><rect x="344" y="150" width="4" height="30" fill="#0f3a22"/><rect x="344" y="150" width="4" height="4" fill="#1d6b3f"/><rect x="348" y="154" width="4" height="26" fill="#0f3a22"/><rect x="348" y="154" width="4" height="4" fill="#1d6b3f"/><rect x="352" y="154" width="4" height="26" fill="#0f3a22"/><rect x="352" y="154" width="4" height="4" fill="#1d6b3f"/><rect x="356" y="150" width="4" height="30" fill="#0f3a22"/><rect x="356" y="150" width="4" height="4" fill="#1d6b3f"/><rect x="360" y="150" width="4" height="30" fill="#0f3a22"/><rect x="360" y="150" width="4" height="4" fill="#1d6b3f"/><rect x="364" y="146" width="4" height="34" fill="#0f3a22"/><rect x="364" y="146" width="4" height="4" fill="#1d6b3f"/><rect x="368" y="146" width="4" height="34" fill="#0f3a22"/><rect x="368" y="146" width="4" height="4" fill="#1d6b3f"/><rect x="372" y="150" width="4" height="30" fill="#0f3a22"/><rect x="372" y="150" width="4" height="4" fill="#1d6b3f"/><rect x="376" y="154" width="4" height="26" fill="#0f3a22"/><rect x="376" y="154" width="4" height="4" fill="#1d6b3f"/><rect x="380" y="156" width="4" height="24" fill="#0f3a22"/><rect x="380" y="156" width="4" height="4" fill="#1d6b3f"/><rect x="384" y="156" width="4" height="24" fill="#0f3a22"/><rect x="384" y="156" width="4" height="4" fill="#1d6b3f"/><rect x="388" y="156" width="4" height="24" fill="#0f3a22"/><rect x="388" y="156" width="4" height="4" fill="#1d6b3f"/><rect x="392" y="156" width="4" height="24" fill="#0f3a22"/><rect x="392" y="156" width="4" height="4" fill="#1d6b3f"/><rect x="396" y="156" width="4" height="24" fill="#0f3a22"/><rect x="396" y="156" width="4" height="4" fill="#1d6b3f"/><rect x="400" y="156" width="4" height="24" fill="#0f3a22"/><rect x="400" y="156" width="4" height="4" fill="#1d6b3f"/><rect x="404" y="156" width="4" height="24" fill="#0f3a22"/><rect x="404" y="156" width="4" height="4" fill="#1d6b3f"/><rect x="408" y="156" width="4" height="24" fill="#0f3a22"/><rect x="408" y="156" width="4" height="4" fill="#1d6b3f"/><rect x="412" y="152" width="4" height="28" fill="#0f3a22"/><rect x="412" y="152" width="4" height="4" fill="#1d6b3f"/><rect x="416" y="152" width="4" height="28" fill="#0f3a22"/><rect x="416" y="152" width="4" height="4" fill="#1d6b3f"/><rect x="420" y="152" width="4" height="28" fill="#0f3a22"/><rect x="420" y="152" width="4" height="4" fill="#1d6b3f"/><rect x="424" y="152" width="4" height="28" fill="#0f3a22"/><rect x="424" y="152" width="4" height="4" fill="#1d6b3f"/><rect x="428" y="152" width="4" height="28" fill="#0f3a22"/><rect x="428" y="152" width="4" height="4" fill="#1d6b3f"/><rect x="432" y="156" width="4" height="24" fill="#0f3a22"/><rect x="432" y="156" width="4" height="4" fill="#1d6b3f"/><rect x="436" y="156" width="4" height="24" fill="#0f3a22"/><rect x="436" y="156" width="4" height="4" fill="#1d6b3f"/><rect x="440" y="156" width="4" height="24" fill="#0f3a22"/><rect x="440" y="156" width="4" height="4" fill="#1d6b3f"/><rect x="444" y="156" width="4" height="24" fill="#0f3a22"/><rect x="444" y="156" width="4" height="4" fill="#1d6b3f"/><rect x="448" y="152" width="4" height="28" fill="#0f3a22"/><rect x="448" y="152" width="4" height="4" fill="#1d6b3f"/><rect x="452" y="152" width="4" height="28" fill="#0f3a22"/><rect x="452" y="152" width="4" height="4" fill="#1d6b3f"/><rect x="456" y="156" width="4" height="24" fill="#0f3a22"/><rect x="456" y="156" width="4" height="4" fill="#1d6b3f"/><rect x="460" y="152" width="4" height="28" fill="#0f3a22"/><rect x="460" y="152" width="4" height="4" fill="#1d6b3f"/><rect x="464" y="156" width="4" height="24" fill="#0f3a22"/><rect x="464" y="156" width="4" height="4" fill="#1d6b3f"/><rect x="468" y="156" width="4" height="24" fill="#0f3a22"/><rect x="468" y="156" width="4" height="4" fill="#1d6b3f"/><rect x="472" y="156" width="4" height="24" fill="#0f3a22"/><rect x="472" y="156" width="4" height="4" fill="#1d6b3f"/><rect x="476" y="156" width="4" height="24" fill="#0f3a22"/><rect x="476" y="156" width="4" height="4" fill="#1d6b3f"/><rect x="480" y="156" width="4" height="24" fill="#0f3a22"/><rect x="480" y="156" width="4" height="4" fill="#1d6b3f"/><rect x="484" y="156" width="4" height="24" fill="#0f3a22"/><rect x="484" y="156" width="4" height="4" fill="#1d6b3f"/><rect x="488" y="156" width="4" height="24" fill="#0f3a22"/><rect x="488" y="156" width="4" height="4" fill="#1d6b3f"/><rect x="492" y="156" width="4" height="24" fill="#0f3a22"/><rect x="492" y="156" width="4" height="4" fill="#1d6b3f"/><rect x="496" y="156" width="4" height="24" fill="#0f3a22"/><rect x="496" y="156" width="4" height="4" fill="#1d6b3f"/><rect x="500" y="156" width="4" height="24" fill="#0f3a22"/><rect x="500" y="156" width="4" height="4" fill="#1d6b3f"/><rect x="504" y="152" width="4" height="28" fill="#0f3a22"/><rect x="504" y="152" width="4" height="4" fill="#1d6b3f"/><rect x="508" y="156" width="4" height="24" fill="#0f3a22"/><rect x="508" y="156" width="4" height="4" fill="#1d6b3f"/><rect x="512" y="156" width="4" height="24" fill="#0f3a22"/><rect x="512" y="156" width="4" height="4" fill="#1d6b3f"/><rect x="516" y="156" width="4" height="24" fill="#0f3a22"/><rect x="516" y="156" width="4" height="4" fill="#1d6b3f"/><rect x="520" y="156" width="4" height="24" fill="#0f3a22"/><rect x="520" y="156" width="4" height="4" fill="#1d6b3f"/><rect x="524" y="156" width="4" height="24" fill="#0f3a22"/><rect x="524" y="156" width="4" height="4" fill="#1d6b3f"/><rect x="528" y="156" width="4" height="24" fill="#0f3a22"/><rect x="528" y="156" width="4" height="4" fill="#1d6b3f"/><rect x="532" y="156" width="4" height="24" fill="#0f3a22"/><rect x="532" y="156" width="4" height="4" fill="#1d6b3f"/><rect x="536" y="156" width="4" height="24" fill="#0f3a22"/><rect x="536" y="156" width="4" height="4" fill="#1d6b3f"/><rect x="540" y="156" width="4" height="24" fill="#0f3a22"/><rect x="540" y="156" width="4" height="4" fill="#1d6b3f"/><rect x="544" y="156" width="4" height="24" fill="#0f3a22"/><rect x="544" y="156" width="4" height="4" fill="#1d6b3f"/><rect x="548" y="156" width="4" height="24" fill="#0f3a22"/><rect x="548" y="156" width="4" height="4" fill="#1d6b3f"/><rect x="552" y="156" width="4" height="24" fill="#0f3a22"/><rect x="552" y="156" width="4" height="4" fill="#1d6b3f"/><rect x="556" y="156" width="4" height="24" fill="#0f3a22"/><rect x="556" y="156" width="4" height="4" fill="#1d6b3f"/><rect x="560" y="156" width="4" height="24" fill="#0f3a22"/><rect x="560" y="156" width="4" height="4" fill="#1d6b3f"/><rect x="564" y="156" width="4" height="24" fill="#0f3a22"/><rect x="564" y="156" width="4" height="4" fill="#1d6b3f"/><rect x="568" y="156" width="4" height="24" fill="#0f3a22"/><rect x="568" y="156" width="4" height="4" fill="#1d6b3f"/><rect x="572" y="156" width="4" height="24" fill="#0f3a22"/><rect x="572" y="156" width="4" height="4" fill="#1d6b3f"/><rect x="576" y="156" width="4" height="24" fill="#0f3a22"/><rect x="576" y="156" width="4" height="4" fill="#1d6b3f"/><rect x="580" y="156" width="4" height="24" fill="#0f3a22"/><rect x="580" y="156" width="4" height="4" fill="#1d6b3f"/><rect x="584" y="156" width="4" height="24" fill="#0f3a22"/><rect x="584" y="156" width="4" height="4" fill="#1d6b3f"/><rect x="588" y="156" width="4" height="24" fill="#0f3a22"/><rect x="588" y="156" width="4" height="4" fill="#1d6b3f"/><rect x="592" y="156" width="4" height="24" fill="#0f3a22"/><rect x="592" y="156" width="4" height="4" fill="#1d6b3f"/><rect x="596" y="152" width="4" height="28" fill="#0f3a22"/><rect x="596" y="152" width="4" height="4" fill="#1d6b3f"/><rect x="600" y="152" width="4" height="28" fill="#0f3a22"/><rect x="600" y="152" width="4" height="4" fill="#1d6b3f"/><rect x="604" y="152" width="4" height="28" fill="#0f3a22"/><rect x="604" y="152" width="4" height="4" fill="#1d6b3f"/><rect x="608" y="152" width="4" height="28" fill="#0f3a22"/><rect x="608" y="152" width="4" height="4" fill="#1d6b3f"/><rect x="612" y="148" width="4" height="32" fill="#0f3a22"/><rect x="612" y="148" width="4" height="4" fill="#1d6b3f"/><rect x="616" y="148" width="4" height="32" fill="#0f3a22"/><rect x="616" y="148" width="4" height="4" fill="#1d6b3f"/><rect x="620" y="148" width="4" height="32" fill="#0f3a22"/><rect x="620" y="148" width="4" height="4" fill="#1d6b3f"/><rect x="624" y="148" width="4" height="32" fill="#0f3a22"/><rect x="624" y="148" width="4" height="4" fill="#1d6b3f"/><rect x="628" y="148" width="4" height="32" fill="#0f3a22"/><rect x="628" y="148" width="4" height="4" fill="#1d6b3f"/><rect x="632" y="148" width="4" height="32" fill="#0f3a22"/><rect x="632" y="148" width="4" height="4" fill="#1d6b3f"/><rect x="636" y="144" width="4" height="36" fill="#0f3a22"/><rect x="636" y="144" width="4" height="4" fill="#1d6b3f"/><rect x="640" y="144" width="4" height="36" fill="#0f3a22"/><rect x="640" y="144" width="4" height="4" fill="#1d6b3f"/><rect x="644" y="144" width="4" height="36" fill="#0f3a22"/><rect x="644" y="144" width="4" height="4" fill="#1d6b3f"/><rect x="648" y="144" width="4" height="36" fill="#0f3a22"/><rect x="648" y="144" width="4" height="4" fill="#1d6b3f"/><rect x="652" y="140" width="4" height="40" fill="#0f3a22"/><rect x="652" y="140" width="4" height="4" fill="#1d6b3f"/><rect x="656" y="136" width="4" height="44" fill="#0f3a22"/><rect x="656" y="136" width="4" height="4" fill="#1d6b3f"/><rect x="660" y="136" width="4" height="44" fill="#0f3a22"/><rect x="660" y="136" width="4" height="4" fill="#1d6b3f"/><rect x="664" y="136" width="4" height="44" fill="#0f3a22"/><rect x="664" y="136" width="4" height="4" fill="#1d6b3f"/><rect x="668" y="136" width="4" height="44" fill="#0f3a22"/><rect x="668" y="136" width="4" height="4" fill="#1d6b3f"/><rect x="672" y="136" width="4" height="44" fill="#0f3a22"/><rect x="672" y="136" width="4" height="4" fill="#1d6b3f"/><rect x="676" y="136" width="4" height="44" fill="#0f3a22"/><rect x="676" y="136" width="4" height="4" fill="#1d6b3f"/><rect x="680" y="136" width="4" height="44" fill="#0f3a22"/><rect x="680" y="136" width="4" height="4" fill="#1d6b3f"/><rect x="684" y="140" width="4" height="40" fill="#0f3a22"/><rect x="684" y="140" width="4" height="4" fill="#1d6b3f"/><rect x="688" y="140" width="4" height="40" fill="#0f3a22"/><rect x="688" y="140" width="4" height="4" fill="#1d6b3f"/><rect x="692" y="140" width="4" height="40" fill="#0f3a22"/><rect x="692" y="140" width="4" height="4" fill="#1d6b3f"/><rect x="696" y="140" width="4" height="40" fill="#0f3a22"/><rect x="696" y="140" width="4" height="4" fill="#1d6b3f"/><rect x="700" y="140" width="4" height="40" fill="#0f3a22"/><rect x="700" y="140" width="4" height="4" fill="#1d6b3f"/><rect x="704" y="140" width="4" height="40" fill="#0f3a22"/><rect x="704" y="140" width="4" height="4" fill="#1d6b3f"/><rect x="708" y="140" width="4" height="40" fill="#0f3a22"/><rect x="708" y="140" width="4" height="4" fill="#1d6b3f"/><rect x="712" y="140" width="4" height="40" fill="#0f3a22"/><rect x="712" y="140" width="4" height="4" fill="#1d6b3f"/><rect x="716" y="140" width="4" height="40" fill="#0f3a22"/><rect x="716" y="140" width="4" height="4" fill="#1d6b3f"/><rect x="720" y="140" width="4" height="40" fill="#0f3a22"/><rect x="720" y="140" width="4" height="4" fill="#1d6b3f"/><rect x="724" y="140" width="4" height="40" fill="#0f3a22"/><rect x="724" y="140" width="4" height="4" fill="#1d6b3f"/><rect x="728" y="144" width="4" height="36" fill="#0f3a22"/><rect x="728" y="144" width="4" height="4" fill="#1d6b3f"/><rect x="732" y="148" width="4" height="32" fill="#0f3a22"/><rect x="732" y="148" width="4" height="4" fill="#1d6b3f"/><rect x="736" y="144" width="4" height="36" fill="#0f3a22"/><rect x="736" y="144" width="4" height="4" fill="#1d6b3f"/><rect x="740" y="140" width="4" height="40" fill="#0f3a22"/><rect x="740" y="140" width="4" height="4" fill="#1d6b3f"/><rect x="744" y="140" width="4" height="40" fill="#0f3a22"/><rect x="744" y="140" width="4" height="4" fill="#1d6b3f"/><rect x="748" y="144" width="4" height="36" fill="#0f3a22"/><rect x="748" y="144" width="4" height="4" fill="#1d6b3f"/><rect x="752" y="140" width="4" height="40" fill="#0f3a22"/><rect x="752" y="140" width="4" height="4" fill="#1d6b3f"/><rect x="756" y="140" width="4" height="40" fill="#0f3a22"/><rect x="756" y="140" width="4" height="4" fill="#1d6b3f"/><rect x="760" y="140" width="4" height="40" fill="#0f3a22"/><rect x="760" y="140" width="4" height="4" fill="#1d6b3f"/><rect x="764" y="136" width="4" height="44" fill="#0f3a22"/><rect x="764" y="136" width="4" height="4" fill="#1d6b3f"/><rect x="768" y="136" width="4" height="44" fill="#0f3a22"/><rect x="768" y="136" width="4" height="4" fill="#1d6b3f"/><rect x="772" y="136" width="4" height="44" fill="#0f3a22"/><rect x="772" y="136" width="4" height="4" fill="#1d6b3f"/><rect x="776" y="136" width="4" height="44" fill="#0f3a22"/><rect x="776" y="136" width="4" height="4" fill="#1d6b3f"/><rect x="780" y="136" width="4" height="44" fill="#0f3a22"/><rect x="780" y="136" width="4" height="4" fill="#1d6b3f"/><rect x="784" y="136" width="4" height="44" fill="#0f3a22"/><rect x="784" y="136" width="4" height="4" fill="#1d6b3f"/><rect x="788" y="134" width="4" height="46" fill="#0f3a22"/><rect x="788" y="134" width="4" height="4" fill="#1d6b3f"/><rect x="792" y="134" width="4" height="46" fill="#0f3a22"/><rect x="792" y="134" width="4" height="4" fill="#1d6b3f"/><rect x="796" y="134" width="4" height="46" fill="#0f3a22"/><rect x="796" y="134" width="4" height="4" fill="#1d6b3f"/><rect x="800" y="134" width="4" height="46" fill="#0f3a22"/><rect x="800" y="134" width="4" height="4" fill="#1d6b3f"/><rect x="804" y="134" width="4" height="46" fill="#0f3a22"/><rect x="804" y="134" width="4" height="4" fill="#1d6b3f"/><rect x="808" y="134" width="4" height="46" fill="#0f3a22"/><rect x="808" y="134" width="4" height="4" fill="#1d6b3f"/><rect x="812" y="138" width="4" height="42" fill="#0f3a22"/><rect x="812" y="138" width="4" height="4" fill="#1d6b3f"/><rect x="816" y="142" width="4" height="38" fill="#0f3a22"/><rect x="816" y="142" width="4" height="4" fill="#1d6b3f"/><rect x="820" y="142" width="4" height="38" fill="#0f3a22"/><rect x="820" y="142" width="4" height="4" fill="#1d6b3f"/><rect x="824" y="146" width="4" height="34" fill="#0f3a22"/><rect x="824" y="146" width="4" height="4" fill="#1d6b3f"/><rect x="828" y="142" width="4" height="38" fill="#0f3a22"/><rect x="828" y="142" width="4" height="4" fill="#1d6b3f"/><rect x="832" y="146" width="4" height="34" fill="#0f3a22"/><rect x="832" y="146" width="4" height="4" fill="#1d6b3f"/><rect x="836" y="150" width="4" height="30" fill="#0f3a22"/><rect x="836" y="150" width="4" height="4" fill="#1d6b3f"/><rect x="840" y="150" width="4" height="30" fill="#0f3a22"/><rect x="840" y="150" width="4" height="4" fill="#1d6b3f"/><rect x="844" y="150" width="4" height="30" fill="#0f3a22"/><rect x="844" y="150" width="4" height="4" fill="#1d6b3f"/><rect x="848" y="150" width="4" height="30" fill="#0f3a22"/><rect x="848" y="150" width="4" height="4" fill="#1d6b3f"/><rect x="852" y="146" width="4" height="34" fill="#0f3a22"/><rect x="852" y="146" width="4" height="4" fill="#1d6b3f"/><rect x="856" y="142" width="4" height="38" fill="#0f3a22"/><rect x="856" y="142" width="4" height="4" fill="#1d6b3f"/><rect x="588" y="164" width="4" height="4" fill="#0b2b1a"/><rect x="772" y="144" width="4" height="4" fill="#155c31"/><rect x="408" y="172" width="4" height="4" fill="#0b2b1a"/><rect x="268" y="172" width="4" height="4" fill="#155c31"/><rect x="128" y="148" width="4" height="4" fill="#155c31"/><rect x="708" y="164" width="4" height="4" fill="#155c31"/><rect x="428" y="172" width="4" height="4" fill="#26a641"/><rect x="180" y="164" width="4" height="4" fill="#155c31"/><rect x="212" y="156" width="4" height="4" fill="#155c31"/><rect x="584" y="172" width="4" height="4" fill="#26a641"/><rect x="388" y="160" width="4" height="4" fill="#155c31"/><rect x="584" y="168" width="4" height="4" fill="#155c31"/><rect x="680" y="148" width="4" height="4" fill="#0b2b1a"/><rect x="544" y="160" width="4" height="4" fill="#155c31"/><rect x="532" y="160" width="4" height="4" fill="#0b2b1a"/><rect x="336" y="168" width="4" height="4" fill="#0b2b1a"/><rect x="340" y="152" width="4" height="4" fill="#26a641"/><rect x="696" y="160" width="4" height="4" fill="#155c31"/><rect x="648" y="148" width="4" height="4" fill="#26a641"/><rect x="324" y="168" width="4" height="4" fill="#155c31"/><rect x="168" y="148" width="4" height="4" fill="#26a641"/><rect x="48" y="164" width="4" height="4" fill="#0b2b1a"/><rect x="48" y="160" width="4" height="4" fill="#26a641"/><rect x="232" y="172" width="4" height="4" fill="#155c31"/><rect x="160" y="172" width="4" height="4" fill="#155c31"/><rect x="56" y="168" width="4" height="4" fill="#0b2b1a"/><rect x="824" y="156" width="4" height="4" fill="#0b2b1a"/><rect x="496" y="160" width="4" height="4" fill="#155c31"/><rect x="280" y="164" width="4" height="4" fill="#0b2b1a"/><rect x="572" y="160" width="4" height="4" fill="#26a641"/><rect x="176" y="168" width="4" height="4" fill="#155c31"/><rect x="668" y="144" width="4" height="4" fill="#26a641"/><rect x="692" y="144" width="4" height="4" fill="#26a641"/><rect x="128" y="148" width="4" height="4" fill="#0b2b1a"/><rect x="556" y="160" width="4" height="4" fill="#0b2b1a"/><rect x="776" y="172" width="4" height="4" fill="#26a641"/><rect x="388" y="160" width="4" height="4" fill="#155c31"/><rect x="800" y="152" width="4" height="4" fill="#26a641"/><rect x="620" y="168" width="4" height="4" fill="#0b2b1a"/><rect x="348" y="156" width="4" height="4" fill="#155c31"/><rect x="828" y="164" width="4" height="4" fill="#155c31"/><rect x="192" y="156" width="4" height="4" fill="#0b2b1a"/><rect x="756" y="144" width="4" height="4" fill="#0b2b1a"/><rect x="508" y="168" width="4" height="4" fill="#26a641"/><rect x="748" y="148" width="4" height="4" fill="#0b2b1a"/><rect x="384" y="168" width="4" height="4" fill="#0b2b1a"/><rect x="800" y="152" width="4" height="4" fill="#26a641"/><rect x="452" y="156" width="4" height="4" fill="#0b2b1a"/><rect x="856" y="148" width="4" height="4" fill="#155c31"/><rect x="380" y="164" width="4" height="4" fill="#155c31"/><rect x="600" y="156" width="4" height="4" fill="#26a641"/><rect x="404" y="160" width="4" height="4" fill="#155c31"/><rect x="160" y="148" width="4" height="4" fill="#0b2b1a"/><rect x="292" y="164" width="4" height="4" fill="#155c31"/><rect x="124" y="172" width="4" height="4" fill="#155c31"/><rect x="820" y="148" width="4" height="4" fill="#0b2b1a"/><rect x="360" y="156" width="4" height="4" fill="#26a641"/><rect x="696" y="152" width="4" height="4" fill="#155c31"/><rect x="676" y="160" width="4" height="4" fill="#0b2b1a"/><rect x="384" y="172" width="4" height="4" fill="#155c31"/><rect x="624" y="156" width="4" height="4" fill="#26a641"/><rect x="152" y="168" width="4" height="4" fill="#26a641"/><rect x="16" y="168" width="4" height="4" fill="#155c31"/><rect x="756" y="156" width="4" height="4" fill="#155c31"/><rect x="524" y="168" width="4" height="4" fill="#0b2b1a"/><rect x="176" y="160" width="4" height="4" fill="#155c31"/><rect x="52" y="152" width="4" height="4" fill="#0b2b1a"/><rect x="660" y="156" width="4" height="4" fill="#0b2b1a"/><rect x="580" y="160" width="4" height="4" fill="#155c31"/><rect x="4" y="168" width="4" height="4" fill="#0b2b1a"/><ellipse cx="120" cy="150" rx="26" ry="7" fill="#0b2b1a"/><ellipse cx="120" cy="148" rx="22" ry="5" fill="#124a2a"/><ellipse cx="475" cy="172" rx="20" ry="7" fill="#0b2b1a"/><ellipse cx="475" cy="170" rx="16" ry="5" fill="#124a2a"/><ellipse cx="700" cy="156" rx="30" ry="7" fill="#0b2b1a"/><ellipse cx="700" cy="154" rx="26" ry="5" fill="#124a2a"/></g>
  <g shape-rendering="crispEdges"><rect x="128" y="112" width="4" height="4" fill="#f85149" class="blink"/><rect x="132" y="112" width="4" height="4" fill="#f85149" class="blink"/><rect x="128" y="116" width="4" height="4" fill="#9fc4ff"/><rect x="132" y="116" width="4" height="4" fill="#9fc4ff"/><rect x="124" y="120" width="4" height="4" fill="#4493f8"/><rect x="128" y="120" width="4" height="4" fill="#4493f8"/><rect x="132" y="120" width="4" height="4" fill="#4493f8"/><rect x="136" y="120" width="4" height="4" fill="#4493f8"/><rect x="120" y="124" width="4" height="4" fill="#4493f8"/><rect x="124" y="124" width="4" height="4" fill="#4493f8"/><rect x="128" y="124" width="4" height="4" fill="#4493f8"/><rect x="132" y="124" width="4" height="4" fill="#4493f8"/><rect x="136" y="124" width="4" height="4" fill="#4493f8"/><rect x="140" y="124" width="4" height="4" fill="#4493f8"/><rect x="120" y="128" width="4" height="4" fill="#4493f8"/><rect x="124" y="128" width="4" height="4" fill="#9fc4ff"/><rect x="128" y="128" width="4" height="4" fill="#4493f8"/><rect x="132" y="128" width="4" height="4" fill="#4493f8"/><rect x="136" y="128" width="4" height="4" fill="#9fc4ff"/><rect x="140" y="128" width="4" height="4" fill="#4493f8"/><rect x="116" y="132" width="4" height="4" fill="#4493f8"/><rect x="120" y="132" width="4" height="4" fill="#4493f8"/><rect x="124" y="132" width="4" height="4" fill="#4493f8"/><rect x="128" y="132" width="4" height="4" fill="#4493f8"/><rect x="132" y="132" width="4" height="4" fill="#4493f8"/><rect x="136" y="132" width="4" height="4" fill="#4493f8"/><rect x="140" y="132" width="4" height="4" fill="#4493f8"/><rect x="144" y="132" width="4" height="4" fill="#4493f8"/><rect x="116" y="136" width="4" height="4" fill="#6e7681"/><rect x="128" y="136" width="4" height="4" fill="#6e7681"/><rect x="132" y="136" width="4" height="4" fill="#6e7681"/><rect x="144" y="136" width="4" height="4" fill="#6e7681"/></g>
  <rect x="428" y="88" width="4" height="68" fill="#6e7681"/><rect x="388" y="62" width="84" height="26" rx="4" fill="#161b22" stroke="#4d9fea" stroke-width="1.5"/><text x="430" y="79" text-anchor="middle" class="sign" fill="#4d9fea">LinkedIn</text><rect x="714" y="88" width="4" height="56" fill="#6e7681"/><rect x="674" y="62" width="84" height="26" rx="4" fill="#161b22" stroke="#39d353" stroke-width="1.5"/><text x="716" y="79" text-anchor="middle" class="sign" fill="#39d353">Email</text>
  <text x="430" y="36" text-anchor="middle" class="touch">get in touch</text>
  </g>
</svg>
