<svg width="860" height="200" viewBox="0 0 860 200" xmlns="http://www.w3.org/2000/svg" role="img" aria-label="Nicholas Burgo — Data Science + AI + Research = My Passion">
  <style>
    .tw { animation: twinkle 3.2s ease-in-out infinite; }
    .tw2 { animation: twinkle 4.1s ease-in-out infinite; animation-delay: 1.3s; }
    .tw3 { animation: twinkle 2.6s ease-in-out infinite; animation-delay: 0.7s; }
    @keyframes twinkle { 0%, 100% { opacity: 1; } 50% { opacity: 0.15; } }
    .drift { animation: drift 16.5s linear infinite; }
    @keyframes drift { from { transform: translateY(0); } to { transform: translateY(200px); } }

    .name { font: 700 38px 'Segoe UI', Ubuntu, 'Helvetica Neue', sans-serif; fill: #e6edf3; letter-spacing: 2px; }
    .tag { font: 500 17px ui-monospace, 'Cascadia Code', 'Fira Code', Consolas, monospace; fill: #39d353; letter-spacing: 1px; }
    .badge { font: 600 13px ui-monospace, 'Cascadia Code', 'Fira Code', Consolas, monospace; fill: #e6edf3; }
  </style>

  <rect width="860" height="200" fill="#0d1117"/>
  <g class="drift">
    <g id="stars">
      <circle cx="280" cy="32" r="1.3" fill="#ffffff" opacity="0.72"/>
      <circle cx="66" cy="107" r="1.0" fill="#ffffff" opacity="0.53"/>
      <circle cx="53" cy="101" r="0.7" fill="#ffffff" opacity="0.35"/>
      <circle cx="373" cy="16" r="0.8" fill="#ffffff" opacity="0.41" class="tw3"/>
      <circle cx="366" cy="164" r="0.8" fill="#ffffff" opacity="0.41"/>
      <circle cx="194" cy="125" r="1.6" fill="#ffffff" opacity="0.9"/>
      <circle cx="496" cy="80" r="1.6" fill="#ffffff" opacity="0.9" class="tw2"/>
      <circle cx="44" cy="170" r="1.0" fill="#ffffff" opacity="0.53"/>
      <circle cx="127" cy="25" r="1.0" fill="#ffffff" opacity="0.53"/>
      <circle cx="699" cy="37" r="1.2" fill="#ffffff" opacity="0.66" class="tw"/>
      <circle cx="548" cy="75" r="1.2" fill="#ffffff" opacity="0.66"/>
      <circle cx="57" cy="14" r="0.9" fill="#ffffff" opacity="0.47"/>
      <circle cx="584" cy="86" r="1.0" fill="#ffffff" opacity="0.53"/>
      <circle cx="503" cy="91" r="1.0" fill="#ffffff" opacity="0.53"/>
      <circle cx="681" cy="139" r="0.9" fill="#ffffff" opacity="0.47"/>
      <circle cx="493" cy="105" r="1.5" fill="#ffffff" opacity="0.84" class="tw3"/>
      <circle cx="625" cy="58" r="1.6" fill="#ffffff" opacity="0.9"/>
      <circle cx="105" cy="84" r="1.4" fill="#ffffff" opacity="0.78"/>
      <circle cx="133" cy="98" r="0.7" fill="#ffffff" opacity="0.35" class="tw2"/>
      <circle cx="573" cy="152" r="1.2" fill="#ffffff" opacity="0.66"/>
      <circle cx="750" cy="63" r="1.3" fill="#ffffff" opacity="0.72"/>
      <circle cx="510" cy="116" r="1.1" fill="#ffffff" opacity="0.59" class="tw"/>
      <circle cx="720" cy="187" r="1.1" fill="#ffffff" opacity="0.59"/>
      <circle cx="570" cy="14" r="1.3" fill="#ffffff" opacity="0.72"/>
      <circle cx="555" cy="197" r="1.4" fill="#ffffff" opacity="0.78"/>
      <circle cx="246" cy="78" r="1.3" fill="#ffffff" opacity="0.72"/>
      <circle cx="23" cy="92" r="0.9" fill="#ffffff" opacity="0.47"/>
      <circle cx="104" cy="14" r="1.4" fill="#ffffff" opacity="0.78" class="tw3"/>
      <circle cx="114" cy="51" r="1.1" fill="#ffffff" opacity="0.59"/>
      <circle cx="746" cy="18" r="1.1" fill="#ffffff" opacity="0.59"/>
      <circle cx="472" cy="175" r="1.4" fill="#ffffff" opacity="0.78" class="tw2"/>
      <circle cx="740" cy="57" r="1.1" fill="#ffffff" opacity="0.59"/>
      <circle cx="310" cy="175" r="1.6" fill="#ffffff" opacity="0.9"/>
      <circle cx="133" cy="37" r="0.9" fill="#ffffff" opacity="0.47" class="tw"/>
      <circle cx="203" cy="97" r="1.2" fill="#ffffff" opacity="0.66"/>
      <circle cx="228" cy="3" r="1.1" fill="#ffffff" opacity="0.59"/>
      <circle cx="319" cy="113" r="1.6" fill="#ffffff" opacity="0.9"/>
      <circle cx="592" cy="103" r="1.3" fill="#ffffff" opacity="0.72"/>
      <circle cx="580" cy="13" r="1.5" fill="#ffffff" opacity="0.84"/>
      <circle cx="669" cy="173" r="1.4" fill="#ffffff" opacity="0.78" class="tw3"/>
    </g>
    <use href="#stars" y="-200"/>
  </g>

  <g shape-rendering="crispEdges">
    <rect x="712" y="28" width="9" height="9" fill="#2b2118"/>
    <rect x="721" y="28" width="9" height="9" fill="#2b2118"/>
    <rect x="730" y="28" width="9" height="9" fill="#2b2118"/>
    <rect x="739" y="28" width="9" height="9" fill="#2b2118"/>
    <rect x="748" y="28" width="9" height="9" fill="#2b2118"/>
    <rect x="757" y="28" width="9" height="9" fill="#2b2118"/>
    <rect x="703" y="37" width="9" height="9" fill="#2b2118"/>
    <rect x="712" y="37" width="9" height="9" fill="#2b2118"/>
    <rect x="721" y="37" width="9" height="9" fill="#2b2118"/>
    <rect x="730" y="37" width="9" height="9" fill="#2b2118"/>
    <rect x="739" y="37" width="9" height="9" fill="#2b2118"/>
    <rect x="748" y="37" width="9" height="9" fill="#2b2118"/>
    <rect x="757" y="37" width="9" height="9" fill="#2b2118"/>
    <rect x="766" y="37" width="9" height="9" fill="#2b2118"/>
    <rect x="694" y="46" width="9" height="9" fill="#2b2118"/>
    <rect x="703" y="46" width="9" height="9" fill="#2b2118"/>
    <rect x="712" y="46" width="9" height="9" fill="#2b2118"/>
    <rect x="721" y="46" width="9" height="9" fill="#2b2118"/>
    <rect x="730" y="46" width="9" height="9" fill="#2b2118"/>
    <rect x="739" y="46" width="9" height="9" fill="#2b2118"/>
    <rect x="748" y="46" width="9" height="9" fill="#2b2118"/>
    <rect x="757" y="46" width="9" height="9" fill="#2b2118"/>
    <rect x="766" y="46" width="9" height="9" fill="#2b2118"/>
    <rect x="775" y="46" width="9" height="9" fill="#2b2118"/>
    <rect x="694" y="55" width="9" height="9" fill="#2b2118"/>
    <rect x="703" y="55" width="9" height="9" fill="#2b2118"/>
    <rect x="712" y="55" width="9" height="9" fill="#2b2118"/>
    <rect x="721" y="55" width="9" height="9" fill="#2b2118"/>
    <rect x="730" y="55" width="9" height="9" fill="#2b2118"/>
    <rect x="739" y="55" width="9" height="9" fill="#2b2118"/>
    <rect x="748" y="55" width="9" height="9" fill="#2b2118"/>
    <rect x="757" y="55" width="9" height="9" fill="#2b2118"/>
    <rect x="766" y="55" width="9" height="9" fill="#2b2118"/>
    <rect x="775" y="55" width="9" height="9" fill="#2b2118"/>
    <rect x="694" y="64" width="9" height="9" fill="#2b2118"/>
    <rect x="703" y="64" width="9" height="9" fill="#2b2118"/>
    <rect x="712" y="64" width="9" height="9" fill="#d8a179"/>
    <rect x="721" y="64" width="9" height="9" fill="#d8a179"/>
    <rect x="730" y="64" width="9" height="9" fill="#d8a179"/>
    <rect x="739" y="64" width="9" height="9" fill="#d8a179"/>
    <rect x="748" y="64" width="9" height="9" fill="#d8a179"/>
    <rect x="757" y="64" width="9" height="9" fill="#d8a179"/>
    <rect x="766" y="64" width="9" height="9" fill="#2b2118"/>
    <rect x="775" y="64" width="9" height="9" fill="#2b2118"/>
    <rect x="694" y="73" width="9" height="9" fill="#2b2118"/>
    <rect x="703" y="73" width="9" height="9" fill="#2b2118"/>
    <rect x="712" y="73" width="9" height="9" fill="#241b12"/>
    <rect x="721" y="73" width="9" height="9" fill="#241b12"/>
    <rect x="730" y="73" width="9" height="9" fill="#d8a179"/>
    <rect x="739" y="73" width="9" height="9" fill="#d8a179"/>
    <rect x="748" y="73" width="9" height="9" fill="#241b12"/>
    <rect x="757" y="73" width="9" height="9" fill="#241b12"/>
    <rect x="766" y="73" width="9" height="9" fill="#2b2118"/>
    <rect x="775" y="73" width="9" height="9" fill="#2b2118"/>
    <rect x="694" y="82" width="9" height="9" fill="#2b2118"/>
    <rect x="703" y="82" width="9" height="9" fill="#1c2128"/>
    <rect x="712" y="82" width="9" height="9" fill="#8b949e"/>
    <rect x="721" y="82" width="9" height="9" fill="#8b949e"/>
    <rect x="730" y="82" width="9" height="9" fill="#1c2128"/>
    <rect x="739" y="82" width="9" height="9" fill="#1c2128"/>
    <rect x="748" y="82" width="9" height="9" fill="#8b949e"/>
    <rect x="757" y="82" width="9" height="9" fill="#8b949e"/>
    <rect x="766" y="82" width="9" height="9" fill="#1c2128"/>
    <rect x="775" y="82" width="9" height="9" fill="#2b2118"/>
    <rect x="694" y="91" width="9" height="9" fill="#2b2118"/>
    <rect x="703" y="91" width="9" height="9" fill="#d8a179"/>
    <rect x="712" y="91" width="9" height="9" fill="#d8a179"/>
    <rect x="721" y="91" width="9" height="9" fill="#d8a179"/>
    <rect x="730" y="91" width="9" height="9" fill="#c8916c"/>
    <rect x="739" y="91" width="9" height="9" fill="#c8916c"/>
    <rect x="748" y="91" width="9" height="9" fill="#d8a179"/>
    <rect x="757" y="91" width="9" height="9" fill="#d8a179"/>
    <rect x="766" y="91" width="9" height="9" fill="#d8a179"/>
    <rect x="775" y="91" width="9" height="9" fill="#2b2118"/>
    <rect x="694" y="100" width="9" height="9" fill="#1f1710"/>
    <rect x="703" y="100" width="9" height="9" fill="#1f1710"/>
    <rect x="712" y="100" width="9" height="9" fill="#d8a179"/>
    <rect x="721" y="100" width="9" height="9" fill="#d8a179"/>
    <rect x="730" y="100" width="9" height="9" fill="#d8a179"/>
    <rect x="739" y="100" width="9" height="9" fill="#d8a179"/>
    <rect x="748" y="100" width="9" height="9" fill="#d8a179"/>
    <rect x="757" y="100" width="9" height="9" fill="#d8a179"/>
    <rect x="766" y="100" width="9" height="9" fill="#1f1710"/>
    <rect x="775" y="100" width="9" height="9" fill="#1f1710"/>
    <rect x="694" y="109" width="9" height="9" fill="#1f1710"/>
    <rect x="703" y="109" width="9" height="9" fill="#1f1710"/>
    <rect x="712" y="109" width="9" height="9" fill="#1f1710"/>
    <rect x="721" y="109" width="9" height="9" fill="#1f1710"/>
    <rect x="730" y="109" width="9" height="9" fill="#9c6250"/>
    <rect x="739" y="109" width="9" height="9" fill="#9c6250"/>
    <rect x="748" y="109" width="9" height="9" fill="#1f1710"/>
    <rect x="757" y="109" width="9" height="9" fill="#1f1710"/>
    <rect x="766" y="109" width="9" height="9" fill="#1f1710"/>
    <rect x="775" y="109" width="9" height="9" fill="#1f1710"/>
    <rect x="694" y="118" width="9" height="9" fill="#1f1710"/>
    <rect x="703" y="118" width="9" height="9" fill="#1f1710"/>
    <rect x="712" y="118" width="9" height="9" fill="#1f1710"/>
    <rect x="721" y="118" width="9" height="9" fill="#1f1710"/>
    <rect x="730" y="118" width="9" height="9" fill="#1f1710"/>
    <rect x="739" y="118" width="9" height="9" fill="#1f1710"/>
    <rect x="748" y="118" width="9" height="9" fill="#1f1710"/>
    <rect x="757" y="118" width="9" height="9" fill="#1f1710"/>
    <rect x="766" y="118" width="9" height="9" fill="#1f1710"/>
    <rect x="775" y="118" width="9" height="9" fill="#1f1710"/>
    <rect x="712" y="127" width="9" height="9" fill="#1f1710"/>
    <rect x="721" y="127" width="9" height="9" fill="#1f1710"/>
    <rect x="730" y="127" width="9" height="9" fill="#1f1710"/>
    <rect x="739" y="127" width="9" height="9" fill="#1f1710"/>
    <rect x="748" y="127" width="9" height="9" fill="#1f1710"/>
    <rect x="757" y="127" width="9" height="9" fill="#1f1710"/>
    <rect x="730" y="136" width="9" height="9" fill="#d8a179"/>
    <rect x="739" y="136" width="9" height="9" fill="#d8a179"/>
    <rect x="685" y="145" width="9" height="9" fill="#e2e6ea"/>
    <rect x="694" y="145" width="9" height="9" fill="#e2e6ea"/>
    <rect x="703" y="145" width="9" height="9" fill="#e2e6ea"/>
    <rect x="712" y="145" width="9" height="9" fill="#e2e6ea"/>
    <rect x="721" y="145" width="9" height="9" fill="#e2e6ea"/>
    <rect x="730" y="145" width="9" height="9" fill="#d8a179"/>
    <rect x="739" y="145" width="9" height="9" fill="#d8a179"/>
    <rect x="748" y="145" width="9" height="9" fill="#e2e6ea"/>
    <rect x="757" y="145" width="9" height="9" fill="#e2e6ea"/>
    <rect x="766" y="145" width="9" height="9" fill="#e2e6ea"/>
    <rect x="775" y="145" width="9" height="9" fill="#e2e6ea"/>
    <rect x="784" y="145" width="9" height="9" fill="#e2e6ea"/>
    <rect x="676" y="154" width="9" height="9" fill="#e2e6ea"/>
    <rect x="685" y="154" width="9" height="9" fill="#e2e6ea"/>
    <rect x="694" y="154" width="9" height="9" fill="#e2e6ea"/>
    <rect x="703" y="154" width="9" height="9" fill="#e2e6ea"/>
    <rect x="712" y="154" width="9" height="9" fill="#e2e6ea"/>
    <rect x="721" y="154" width="9" height="9" fill="#e2e6ea"/>
    <rect x="730" y="154" width="9" height="9" fill="#e2e6ea"/>
    <rect x="739" y="154" width="9" height="9" fill="#e2e6ea"/>
    <rect x="748" y="154" width="9" height="9" fill="#e2e6ea"/>
    <rect x="757" y="154" width="9" height="9" fill="#e2e6ea"/>
    <rect x="766" y="154" width="9" height="9" fill="#e2e6ea"/>
    <rect x="775" y="154" width="9" height="9" fill="#e2e6ea"/>
    <rect x="784" y="154" width="9" height="9" fill="#e2e6ea"/>
    <rect x="793" y="154" width="9" height="9" fill="#e2e6ea"/>
    <rect x="676" y="163" width="9" height="9" fill="#e2e6ea"/>
    <rect x="685" y="163" width="9" height="9" fill="#e2e6ea"/>
    <rect x="694" y="163" width="9" height="9" fill="#e2e6ea"/>
    <rect x="703" y="163" width="9" height="9" fill="#e2e6ea"/>
    <rect x="712" y="163" width="9" height="9" fill="#e2e6ea"/>
    <rect x="721" y="163" width="9" height="9" fill="#e2e6ea"/>
    <rect x="730" y="163" width="9" height="9" fill="#e2e6ea"/>
    <rect x="739" y="163" width="9" height="9" fill="#e2e6ea"/>
    <rect x="748" y="163" width="9" height="9" fill="#e2e6ea"/>
    <rect x="757" y="163" width="9" height="9" fill="#e2e6ea"/>
    <rect x="766" y="163" width="9" height="9" fill="#e2e6ea"/>
    <rect x="775" y="163" width="9" height="9" fill="#e2e6ea"/>
    <rect x="784" y="163" width="9" height="9" fill="#e2e6ea"/>
    <rect x="793" y="163" width="9" height="9" fill="#e2e6ea"/>
  </g>

  <text x="400" y="82" text-anchor="middle" class="name">Nicholas Burgo</text>
  <text x="400" y="116" text-anchor="middle" class="tag">Data Science + AI + Research = My Passion</text>

  <g>
    <g transform="translate(162,142)"><rect width="82" height="24" rx="5" fill="#161b22" stroke="#3776ab" stroke-width="1" opacity="0.92"/><circle cx="13" cy="12.0" r="3.2" fill="#3776ab"/><text x="24" y="16.5" class="badge">Python</text></g>
    <g transform="translate(255,142)"><rect width="67" height="24" rx="5" fill="#161b22" stroke="#ce422b" stroke-width="1" opacity="0.92"/><circle cx="13" cy="12.0" r="3.2" fill="#ce422b"/><text x="24" y="16.5" class="badge">Rust</text></g>
    <g transform="translate(331,142)"><rect width="114" height="24" rx="5" fill="#161b22" stroke="#3178c6" stroke-width="1" opacity="0.92"/><circle cx="13" cy="12.0" r="3.2" fill="#3178c6"/><text x="24" y="16.5" class="badge">TypeScript</text></g>
    <g transform="translate(455,142)"><rect width="59" height="24" rx="5" fill="#161b22" stroke="#6b6fd7" stroke-width="1" opacity="0.92"/><circle cx="13" cy="12.0" r="3.2" fill="#6b6fd7"/><text x="24" y="16.5" class="badge">Lua</text></g>
    <g transform="translate(524,142)"><rect width="114" height="24" rx="5" fill="#161b22" stroke="#f1e05a" stroke-width="1" opacity="0.92"/><circle cx="13" cy="12.0" r="3.2" fill="#f1e05a"/><text x="24" y="16.5" class="badge">JavaScript</text></g>
  </g>
</svg>
